<svg xmlns="http://www.w3.org/2000/svg" width="19.678" height="19.613" viewBox="0 0 19.678 19.613"><defs><style>.a{fill:#253f50;}</style></defs><g transform="translate(0 -0.85)"><g transform="translate(0 0.85)"><g transform="translate(0 0)"><path class="a" d="M9.806,18.828H2.452a.817.817,0,0,1-.817-.817V3.3a.817.817,0,0,1,.817-.817H9.806a.817.817,0,0,0,0-1.634H2.452A2.455,2.455,0,0,0,0,3.3V18.011a2.455,2.455,0,0,0,2.452,2.452H9.806a.817.817,0,1,0,0-1.634Z" transform="translate(0 -0.85)"/></g></g><g transform="translate(6.538 4.936)"><path class="a" d="M183,112.3l-4.969-4.9a.817.817,0,0,0-1.147,1.164l3.551,3.5h-9.515a.817.817,0,0,0,0,1.634h9.515l-3.551,3.5a.817.817,0,1,0,1.147,1.164l4.969-4.9a.817.817,0,0,0,0-1.164Z" transform="translate(-170.1 -107.165)"/></g></g></svg>