<svg xmlns="http://www.w3.org/2000/svg" width="180.864" height="65.019" viewBox="0 0 180.864 65.019">
  <g id="Group_9733" data-name="Group 9733" transform="translate(-0.931 -11.711)">
    <path id="Path_6865" data-name="Path 6865" d="M3.024-1.157h7.365V-13.339H20.441V-18.9H10.389v-7.319H23.081v-6.392H3.024Zm23.438,0H45.824V-7.549H33.781v-25.06H26.462ZM67.781-15.794c2.131-.648,5.281-2.687,5.281-7.828,0-4.678-2.826-8.986-8.986-8.986H48.743V-1.157h7.319V-13.2h4.586c2.362,0,3.057.926,3.752,3.15L66.02-4.538c.556,2.64,1.807,3.381,3.937,3.381h5.327V-3.566c-.834,0-1.251-.51-1.529-1.39l-1.714-5.512c-.973-3.381-2.409-4.632-4.262-5.188Zm-11.719-10.7H61.9A3.552,3.552,0,0,1,65.7-22.6c0,2.965-1.807,3.984-3.752,3.984H56.061Zm35.065-6.578c-8.894,0-14.035,7.133-14.035,16.351,0,8.847,5.142,16.027,14.035,16.027a14.16,14.16,0,0,0,10.7-4.539L100.02-9.217C97.611-5.882,94.6-4.353,91.5-4.353c-6.346,0-9.913-5.836-9.913-12.368,0-7.133,3.474-12.692,9.913-12.692,2.965,0,5.975,1.343,8.523,4.864l1.807-3.984A14.018,14.018,0,0,0,91.126-33.072ZM124.709-1.157v-12.09c0-8.894-3.613-11.071-8.06-11.071a7.7,7.7,0,0,0-7.087,4.447V-32.609h-4.169V-1.157h4.169V-13.015c0-6.3,3.242-7.828,5.7-7.828,3.15,0,5.327,1.529,5.327,7.828V-1.157Zm5.373-15.61c2.27-2.409,5-4.169,8.106-4.169,2.455,0,3.984,1.2,3.984,3.752,0,1.343-.463,1.807-2.594,2.409l-4.308,1.112c-4.215,1.065-6.994,2.826-6.994,6.717,0,4.076,2.779,6.253,6.3,6.253,3.613,0,6.161-2.316,7.643-4.215.139,2.965,1.158,4.215,3.52,4.215a10.309,10.309,0,0,0,2.872-.463l.185-3.659a2.739,2.739,0,0,1-1.529.648c-.88,0-1.065-.834-1.065-1.945v-9.959c0-5.234-1.9-8.245-7.411-8.245a14.4,14.4,0,0,0-9.449,3.613Zm2.409,9.5c0-2.131,1.112-3.15,3.845-3.984l3.428-1.019a5.618,5.618,0,0,0,2.362-1.2v5.512c-1.853,2.687-4.215,4.076-6.253,4.076A3.161,3.161,0,0,1,132.491-7.271Zm19.5,6.114h4.123v-22.7h-4.123Zm0-26.681h4.123V-32.1h-4.123ZM180.664-1.157v-12.09c0-8.894-3.613-11.071-8.06-11.071a7.7,7.7,0,0,0-7.087,4.447v-3.984h-4.169v22.7h4.169V-13.015c0-6.3,3.242-7.828,5.7-7.828,3.15,0,5.327,1.529,5.327,7.828V-1.157Z" transform="translate(-0.203 45.283)" fill="#253f50" stroke="rgba(0,0,0,0)" stroke-width="1"/>
    <path id="Path_6866" data-name="Path 6866" d="M2.773-2.356A3.575,3.575,0,0,0,6.106-.318c2.1,0,4.2-1.571,4.2-5.371,0-3.588-2.081-5.35-4.2-5.35A3.437,3.437,0,0,0,2.773-9v-1.826H1.584v14.2H2.773Zm3.1.977c-1.974,0-3.1-1.7-3.1-4.352,0-2.59,1.125-4.246,3.1-4.246,2.059,0,3.142,1.656,3.142,4.246C9.015-3.078,7.932-1.379,5.873-1.379Zm10.424,0c-2.059,0-3.142-1.741-3.142-4.289,0-2.633,1.083-4.31,3.142-4.31,2,0,3.1,1.677,3.1,4.31C19.4-3.12,18.292-1.379,16.3-1.379Zm0,1.062c2.824,0,4.395-2.208,4.395-5.35,0-3.163-1.571-5.371-4.395-5.371-2.845,0-4.437,2.208-4.437,5.371C11.86-2.526,13.452-.318,16.3-.318ZM24.449-.53h1.316l3.057-8.811L31.9-.53h1.338l2.675-10.3H34.64L32.58-2.059l-3.142-8.768H28.271L25.15-2.059,23.09-10.827H21.774Zm17.133-.849c-2.187,0-3.291-1.359-3.291-3.97H45.17a5.219,5.219,0,0,0,.149-1.274c0-2.633-1.55-4.416-3.906-4.416C38.971-11.039,37-9.3,37-5.434,37-2.08,38.78-.318,41.518-.318a5.139,5.139,0,0,0,3.609-1.444l-.4-1.231A3.937,3.937,0,0,1,41.582-1.379Zm-.212-8.6c1.847,0,2.8,1.55,2.7,3.545h-5.8C38.334-8.64,39.693-9.978,41.37-9.978ZM47.4-.53h1.21v-5.1c0-2.038.191-4.14,2.654-4.14a4.217,4.217,0,0,1,.849.106l.064-1.38c-2.4,0-3.142.934-3.567,2.144v-1.932H47.4Zm9.893-.849C55.106-1.379,54-2.738,54-5.35H60.88a5.219,5.219,0,0,0,.149-1.274c0-2.633-1.55-4.416-3.906-4.416-2.441,0-4.416,1.741-4.416,5.6,0,3.354,1.783,5.117,4.522,5.117a5.139,5.139,0,0,0,3.609-1.444l-.4-1.231A3.937,3.937,0,0,1,57.293-1.379Zm-.212-8.6c1.847,0,2.8,1.55,2.7,3.545h-5.8C54.044-8.64,55.4-9.978,57.08-9.978Zm12.993.955a3.536,3.536,0,0,0-3.333-2.017c-2.123,0-4.2,1.55-4.2,5.35,0,3.588,2.081,5.371,4.2,5.371a3.474,3.474,0,0,0,3.333-2.059V-.53h1.189V-14.946H70.073Zm-3.1-.955c1.974,0,3.1,1.677,3.1,4.331,0,2.59-1.125,4.267-3.1,4.267-2.059,0-3.142-1.677-3.142-4.267C63.831-8.3,64.914-9.978,66.974-9.978Zm12.611-4.968H78.4V-.53h1.189V-2.377A3.435,3.435,0,0,0,82.918-.318c2.123,0,4.2-1.783,4.2-5.371,0-3.8-2.1-5.35-4.2-5.35a3.558,3.558,0,0,0-3.333,2.017Zm3.1,4.968c2.059,0,3.142,1.677,3.142,4.331,0,2.59-1.083,4.267-3.142,4.267-1.974,0-3.1-1.677-3.1-4.267C79.584-8.3,80.71-9.978,82.684-9.978Zm9.49,9.15-.786,2.144c-.361.955-.87,1.21-1.422,1.21a2.46,2.46,0,0,1-1.529-.743V3.1a2.655,2.655,0,0,0,1.571.488,2.791,2.791,0,0,0,2.484-2.1l4.586-12.314H95.8L92.7-2.038,89.1-10.827H87.822ZM108.649-14.1a5.6,5.6,0,0,1,4.543,2.357l.531-1.274a7.226,7.226,0,0,0-5.117-2.144c-3.8,0-6.454,3.015-6.454,7.516,0,4.819,2.739,7.324,6.624,7.324a7.6,7.6,0,0,0,5.18-1.953v-5.52h-5.6V-6.73h4.437v3.906A6.046,6.046,0,0,1,108.8-1.379c-3.227,0-5.371-2.123-5.371-6.263C103.426-11.591,105.677-14.1,108.649-14.1Zm7.643,6.178a4.86,4.86,0,0,1,3.63-2.059,1.865,1.865,0,0,1,2.1,2.038c0,.658-.191.892-1.274,1.21l-2.038.531c-1.8.467-3.057,1.3-3.057,3.015A2.7,2.7,0,0,0,118.5-.318a4.564,4.564,0,0,0,3.524-2.059c0,1.465.446,2.059,1.4,2.059a3.672,3.672,0,0,0,.87-.127l.085-1.253a1.174,1.174,0,0,1-.679.318c-.425,0-.488-.446-.488-.977V-7.388c0-2.314-.807-3.652-3.142-3.652a5.58,5.58,0,0,0-4.034,1.783Zm.637,4.756c0-1.083.573-1.635,2-2.059l1.847-.552a2.565,2.565,0,0,0,1.253-.637v2.8a4.369,4.369,0,0,1-3.333,2.229A1.677,1.677,0,0,1,116.929-3.163Zm9.15,2.633h1.189v-10.3h-1.189Zm0-12.292h1.189v-1.656h-1.189Zm3.821,4.9a4.86,4.86,0,0,1,3.63-2.059,1.865,1.865,0,0,1,2.1,2.038c0,.658-.191.892-1.274,1.21l-2.038.531c-1.8.467-3.057,1.3-3.057,3.015a2.7,2.7,0,0,0,2.845,2.866,4.564,4.564,0,0,0,3.524-2.059c0,1.465.446,2.059,1.4,2.059a3.672,3.672,0,0,0,.87-.127l.085-1.253a1.174,1.174,0,0,1-.679.318c-.425,0-.488-.446-.488-.977V-7.388c0-2.314-.807-3.652-3.142-3.652a5.58,5.58,0,0,0-4.034,1.783Zm.637,4.756c0-1.083.573-1.635,2-2.059l1.847-.552a2.565,2.565,0,0,0,1.253-.637v2.8A4.369,4.369,0,0,1,132.3-1.379,1.677,1.677,0,0,1,130.537-3.163ZM143.445-.318a4.445,4.445,0,0,0,3.588-1.72L146.5-3.163a3.957,3.957,0,0,1-3.057,1.783c-1.8,0-3.015-1.571-3.015-4.267,0-2.548,1.083-4.331,3.015-4.331a3.558,3.558,0,0,1,2.993,1.8l.594-1.146a4.5,4.5,0,0,0-3.588-1.72c-2.611,0-4.331,2-4.331,5.371C139.114-2.314,140.813-.318,143.445-.318ZM157.118-.53V-5.88c0-4.182-1.677-5.159-3.652-5.159a3.589,3.589,0,0,0-3.291,2.081v-5.987h-1.21V-.53h1.21V-5.88c0-3.354,1.762-4.1,2.993-4.1,1.614,0,2.76.743,2.76,4.1V-.53Zm2.505-7.388a4.86,4.86,0,0,1,3.63-2.059,1.865,1.865,0,0,1,2.1,2.038c0,.658-.191.892-1.274,1.21l-2.038.531c-1.8.467-3.057,1.3-3.057,3.015a2.7,2.7,0,0,0,2.845,2.866,4.564,4.564,0,0,0,3.524-2.059c0,1.465.446,2.059,1.4,2.059a3.673,3.673,0,0,0,.87-.127l.085-1.253a1.174,1.174,0,0,1-.679.318c-.425,0-.488-.446-.488-.977V-7.388c0-2.314-.807-3.652-3.142-3.652a5.58,5.58,0,0,0-4.034,1.783Zm.637,4.756c0-1.083.573-1.635,2-2.059l1.847-.552a2.565,2.565,0,0,0,1.253-.637v2.8a4.369,4.369,0,0,1-3.333,2.229A1.677,1.677,0,0,1,160.26-3.163ZM169.41-.53H170.6v-10.3H169.41Zm0-12.292H170.6v-1.656H169.41ZM181.448-.53V-5.88c0-4.182-1.677-5.159-3.652-5.159a3.589,3.589,0,0,0-3.291,2.081v-1.868H173.3V-.53h1.21V-5.88c0-3.354,1.762-4.1,2.993-4.1,1.614,0,2.76.743,2.76,4.1V-.53Z" transform="translate(-0.153 72.642)" fill="#72809d" stroke="rgba(0,0,0,0)" stroke-width="1"/>
  </g>
</svg>
