<svg xmlns="http://www.w3.org/2000/svg" width="1440" height="389.605" viewBox="0 0 1440 389.605"><defs><style>.a{fill:#ff6584;}.b{fill:#3f3d56;}.c{fill:#23bc3d;}.d{opacity:0.2;isolation:isolate;}</style></defs><g transform="translate(0 0)"><g transform="translate(0 0)"><ellipse class="a" cx="32.467" cy="32.467" rx="32.467" ry="32.467" transform="translate(78.989 0)"/><rect class="b" width="820.555" height="1.568" transform="translate(0 387.904)"/><ellipse class="c" cx="53.085" cy="53.085" rx="53.085" ry="53.085" transform="translate(396.645 186.686)"/><ellipse class="c" cx="53.085" cy="53.085" rx="53.085" ry="53.085" transform="translate(76.798 186.686)"/><ellipse class="c" cx="65.991" cy="65.991" rx="65.991" ry="65.991" transform="translate(487.771 137.617)"/><ellipse class="c" cx="65.991" cy="65.991" rx="65.991" ry="65.991" transform="translate(167.939 137.617)"/><ellipse class="c" cx="65.991" cy="65.991" rx="65.991" ry="65.991" transform="translate(609.672 137.617)"/><ellipse class="c" cx="65.991" cy="65.991" rx="65.991" ry="65.991" transform="translate(290.005 137.617)"/><path class="d" d="M797.094,386.647a53.089,53.089,0,0,1-88.455,56.184,53.09,53.09,0,1,0,88.455-56.184Z" transform="translate(-307.878 -182.38)"/><path class="d" d="M797.094,386.647a53.089,53.089,0,0,1-88.455,56.184,53.09,53.09,0,1,0,88.455-56.184Z" transform="translate(-627.728 -182.38)"/><path class="b" d="M734.142,404.041h.147l2.624,150.5h-5.541Z" transform="translate(-284.252 -165.073)"/><path class="b" d="M734.142,404.041h.147l2.624,150.5h-5.541Z" transform="translate(-604.148 -165.073)"/><path class="b" d="M734.816,404.041H735l3.261,187.094h-6.887Z" transform="translate(-180.834 -201.53)"/><path class="b" d="M734.816,404.041H735l3.261,187.094h-6.887Z" transform="translate(-500.73 -201.53)"/><path class="b" d="M734.816,404.041H735l3.261,187.094h-6.887Z" transform="translate(-58.972 -201.53)"/><path class="b" d="M734.816,404.041H735l3.261,187.094h-6.887Z" transform="translate(-378.64 -201.53)"/><rect class="b" width="9.917" height="2.625" transform="matrix(0.885, -0.466, 0.466, 0.885, 449.552, 323.243)"/><rect class="b" width="9.917" height="2.625" transform="matrix(0.885, -0.466, 0.466, 0.885, 129.657, 323.243)"/><rect class="b" width="12.328" height="3.263" transform="matrix(0.885, -0.466, 0.466, 0.885, 553.56, 307.763)"/><rect class="b" width="12.328" height="3.263" transform="matrix(0.885, -0.466, 0.466, 0.885, 233.667, 307.763)"/><rect class="b" width="12.328" height="3.263" transform="matrix(0.885, -0.466, 0.466, 0.885, 675.431, 307.763)"/><rect class="b" width="12.328" height="3.263" transform="matrix(0.885, -0.466, 0.466, 0.885, 355.756, 307.763)"/><ellipse class="c" cx="80.725" cy="80.725" rx="80.725" ry="80.725" transform="translate(524.816 81.392)"/><ellipse class="c" cx="80.725" cy="80.725" rx="80.725" ry="80.725" transform="translate(205.001 81.392)"/><path class="d" d="M907.2,339.15a80.732,80.732,0,0,1-134.513,85.438A80.732,80.732,0,1,0,907.2,339.15Z" transform="translate(-241.615 -231.108)"/><path class="d" d="M907.2,339.15a80.732,80.732,0,0,1-134.513,85.438A80.732,80.732,0,1,0,907.2,339.15Z" transform="translate(-561.434 -231.108)"/><path class="b" d="M811.474,365.6h.223l3.991,228.871H807.26Z" transform="translate(-205.649 -204.998)"/><path class="b" d="M811.474,365.6h.223l3.991,228.871H807.26Z" transform="translate(-525.545 -204.998)"/><rect class="b" width="15.081" height="3.992" transform="matrix(0.885, -0.466, 0.466, 0.885, 605.308, 289.361)"/><rect class="b" width="15.081" height="3.992" transform="matrix(0.885, -0.466, 0.466, 0.885, 285.416, 289.361)"/><path class="b" d="M603.924,35.985l7.54-6.031c-5.857-.646-8.265,2.548-9.249,5.076-4.576-1.9-9.558.591-9.558.591L607.743,41.1A11.408,11.408,0,0,0,603.924,35.985Z" transform="translate(-115.976 -4.975)"/><path class="b" d="M141.924,72.985l7.54-6.031c-5.857-.646-8.264,2.548-9.249,5.076-4.576-1.9-9.558.59-9.558.59L145.743,78.1A11.408,11.408,0,0,0,141.924,72.985Z" transform="translate(-31.861 -11.67)"/><path class="b" d="M743.924,110.985l7.54-6.031c-5.857-.646-8.264,2.548-9.249,5.076-4.576-1.9-9.558.591-9.558.591l15.086,5.477A11.408,11.408,0,0,0,743.924,110.985Z" transform="translate(-141.466 -19.081)"/><path class="b" d="M743.924,110.985l7.54-6.031c-5.857-.646-8.264,2.548-9.249,5.076-4.576-1.9-9.558.591-9.558.591l15.086,5.477A11.408,11.408,0,0,0,743.924,110.985Z" transform="translate(-461.356 -19.081)"/><path class="b" d="M217.924,52.985l7.54-6.031c-5.857-.646-8.264,2.548-9.249,5.076-4.576-1.9-9.558.591-9.558.591L221.743,58.1A11.409,11.409,0,0,0,217.924,52.985Z" transform="translate(-45.698 -8.051)"/><path class="b" d="M234.924,132.985l7.54-6.031c-5.857-.646-8.264,2.548-9.249,5.076-4.576-1.9-9.558.591-9.558.591l15.086,5.477A11.408,11.408,0,0,0,234.924,132.985Z" transform="translate(-48.793 -23.173)"/><path class="b" d="M592.924,174.985l7.54-6.031c-5.857-.646-8.265,2.548-9.249,5.077-4.576-1.9-9.558.59-9.558.59l15.086,5.477A11.411,11.411,0,0,0,592.924,174.985Z" transform="translate(-113.974 -30.986)"/><path class="b" d="M592.924,174.985l7.54-6.031c-5.857-.646-8.265,2.548-9.249,5.077-4.576-1.9-9.558.59-9.558.59l15.086,5.477A11.411,11.411,0,0,0,592.924,174.985Z" transform="translate(-433.864 -30.986)"/><path class="b" d="M163.21,463.638a11.4,11.4,0,0,0-5.708,1.532,12.271,12.271,0,0,0-20.5,9.116h37.635A11.459,11.459,0,0,0,163.21,463.638Z" transform="translate(-33.022 -85.526)"/><path class="b" d="M400.209,463.638a11.4,11.4,0,0,0-5.708,1.532,12.271,12.271,0,0,0-20.5,9.116h37.635A11.46,11.46,0,0,0,400.209,463.638Z" transform="translate(-76.178 -85.526)"/><path class="b" d="M555.21,463.638a11.4,11.4,0,0,0-5.708,1.532,12.271,12.271,0,0,0-20.5,9.116h37.635A11.459,11.459,0,0,0,555.21,463.638Z" transform="translate(-104.402 -85.526)"/><path class="b" d="M555.21,463.638a11.4,11.4,0,0,0-5.708,1.532,12.271,12.271,0,0,0-20.5,9.116h37.635A11.459,11.459,0,0,0,555.21,463.638Z" transform="translate(-424.283 -85.526)"/><path class="b" d="M561.582,464.036a14.175,14.175,0,0,0-7.1,1.9A15.254,15.254,0,0,0,529,477.272h46.785A14.244,14.244,0,0,0,561.582,464.036Z" transform="translate(-6.465 -88.553)"/><path class="b" d="M561.582,464.036a14.175,14.175,0,0,0-7.1,1.9A15.254,15.254,0,0,0,529,477.272h46.785A14.244,14.244,0,0,0,561.582,464.036Z" transform="translate(-326.342 -88.553)"/><path class="b" d="M561.582,464.036a14.175,14.175,0,0,0-7.1,1.9A15.254,15.254,0,0,0,529,477.272h46.785A14.244,14.244,0,0,0,561.582,464.036Z" transform="translate(115.618 -88.553)"/><path class="b" d="M561.582,464.036a14.175,14.175,0,0,0-7.1,1.9A15.254,15.254,0,0,0,529,477.272h46.785A14.244,14.244,0,0,0,561.582,464.036Z" transform="translate(-204.259 -88.553)"/><path class="b" d="M759.209,463.638a11.4,11.4,0,0,0-5.708,1.532,12.271,12.271,0,0,0-20.5,9.116h37.635A11.459,11.459,0,0,0,759.209,463.638Z" transform="translate(-141.548 -85.526)"/><path class="b" d="M759.209,463.638a11.4,11.4,0,0,0-5.708,1.532,12.271,12.271,0,0,0-20.5,9.116h37.635A11.459,11.459,0,0,0,759.209,463.638Z" transform="translate(-461.43 -85.526)"/><path class="b" d="M857.209,463.638a11.4,11.4,0,0,0-5.708,1.532,12.271,12.271,0,0,0-20.5,9.116h37.635A11.459,11.459,0,0,0,857.209,463.638Z" transform="translate(-159.587 -85.526)"/><path class="b" d="M857.209,463.638a11.4,11.4,0,0,0-5.708,1.532,12.271,12.271,0,0,0-20.5,9.116h37.635A11.459,11.459,0,0,0,857.209,463.638Z" transform="translate(-479.274 -85.526)"/></g><g transform="translate(619.445 24.895)"><rect class="b" width="820.555" height="1.568" transform="translate(0 363.009)"/><ellipse class="c" cx="53.085" cy="53.085" rx="53.085" ry="53.085" transform="translate(396.645 161.791)"/><ellipse class="c" cx="53.085" cy="53.085" rx="53.085" ry="53.085" transform="translate(76.798 161.791)"/><ellipse class="c" cx="65.991" cy="65.991" rx="65.991" ry="65.991" transform="translate(487.771 112.722)"/><ellipse class="c" cx="65.991" cy="65.991" rx="65.991" ry="65.991" transform="translate(167.939 112.722)"/><ellipse class="c" cx="65.991" cy="65.991" rx="65.991" ry="65.991" transform="translate(609.672 112.722)"/><ellipse class="c" cx="65.991" cy="65.991" rx="65.991" ry="65.991" transform="translate(290.005 112.722)"/><path class="d" d="M797.094,386.647a53.089,53.089,0,0,1-88.455,56.184,53.09,53.09,0,1,0,88.455-56.184Z" transform="translate(-307.878 -207.275)"/><path class="d" d="M797.094,386.647a53.089,53.089,0,0,1-88.455,56.184,53.09,53.09,0,1,0,88.455-56.184Z" transform="translate(-627.728 -207.275)"/><path class="b" d="M734.142,404.041h.147l2.624,150.5h-5.541Z" transform="translate(-284.252 -189.968)"/><path class="b" d="M734.142,404.041h.147l2.624,150.5h-5.541Z" transform="translate(-604.148 -189.968)"/><path class="b" d="M734.816,404.041H735l3.261,187.094h-6.887Z" transform="translate(-180.834 -226.425)"/><path class="b" d="M734.816,404.041H735l3.261,187.094h-6.887Z" transform="translate(-500.73 -226.425)"/><path class="b" d="M734.816,404.041H735l3.261,187.094h-6.887Z" transform="translate(-58.972 -226.425)"/><path class="b" d="M734.816,404.041H735l3.261,187.094h-6.887Z" transform="translate(-378.64 -226.425)"/><rect class="b" width="9.917" height="2.625" transform="matrix(0.885, -0.466, 0.466, 0.885, 449.552, 298.348)"/><rect class="b" width="9.917" height="2.625" transform="matrix(0.885, -0.466, 0.466, 0.885, 129.657, 298.348)"/><rect class="b" width="12.328" height="3.263" transform="matrix(0.885, -0.466, 0.466, 0.885, 553.56, 282.868)"/><rect class="b" width="12.328" height="3.263" transform="matrix(0.885, -0.466, 0.466, 0.885, 233.667, 282.868)"/><rect class="b" width="12.328" height="3.263" transform="matrix(0.885, -0.466, 0.466, 0.885, 675.431, 282.868)"/><rect class="b" width="12.328" height="3.263" transform="matrix(0.885, -0.466, 0.466, 0.885, 355.756, 282.868)"/><ellipse class="c" cx="80.725" cy="80.725" rx="80.725" ry="80.725" transform="translate(524.816 56.497)"/><ellipse class="c" cx="80.725" cy="80.725" rx="80.725" ry="80.725" transform="translate(205.001 56.497)"/><path class="d" d="M907.2,339.15a80.732,80.732,0,0,1-134.513,85.438A80.732,80.732,0,1,0,907.2,339.15Z" transform="translate(-241.615 -256.003)"/><path class="d" d="M907.2,339.15a80.732,80.732,0,0,1-134.513,85.438A80.732,80.732,0,1,0,907.2,339.15Z" transform="translate(-561.434 -256.003)"/><path class="b" d="M811.474,365.6h.223l3.991,228.871H807.26Z" transform="translate(-205.649 -229.893)"/><path class="b" d="M811.474,365.6h.223l3.991,228.871H807.26Z" transform="translate(-525.545 -229.893)"/><rect class="b" width="15.081" height="3.992" transform="matrix(0.885, -0.466, 0.466, 0.885, 605.308, 264.465)"/><rect class="b" width="15.081" height="3.992" transform="matrix(0.885, -0.466, 0.466, 0.885, 285.416, 264.465)"/><path class="b" d="M603.924,35.985l7.54-6.031c-5.857-.646-8.265,2.548-9.249,5.076-4.576-1.9-9.558.591-9.558.591L607.743,41.1A11.408,11.408,0,0,0,603.924,35.985Z" transform="translate(-115.976 -29.87)"/><path class="b" d="M141.924,72.985l7.54-6.031c-5.857-.646-8.264,2.548-9.249,5.076-4.576-1.9-9.558.59-9.558.59L145.743,78.1A11.408,11.408,0,0,0,141.924,72.985Z" transform="translate(-31.861 -36.565)"/><path class="b" d="M743.924,110.985l7.54-6.031c-5.857-.646-8.264,2.548-9.249,5.076-4.576-1.9-9.558.591-9.558.591l15.086,5.477A11.408,11.408,0,0,0,743.924,110.985Z" transform="translate(-141.466 -43.976)"/><path class="b" d="M743.924,110.985l7.54-6.031c-5.857-.646-8.264,2.548-9.249,5.076-4.576-1.9-9.558.591-9.558.591l15.086,5.477A11.408,11.408,0,0,0,743.924,110.985Z" transform="translate(-461.356 -43.976)"/><path class="b" d="M217.924,52.985l7.54-6.031c-5.857-.646-8.264,2.548-9.249,5.076-4.576-1.9-9.558.591-9.558.591L221.743,58.1A11.409,11.409,0,0,0,217.924,52.985Z" transform="translate(-45.698 -32.946)"/><path class="b" d="M234.924,132.985l7.54-6.031c-5.857-.646-8.264,2.548-9.249,5.076-4.576-1.9-9.558.591-9.558.591l15.086,5.477A11.408,11.408,0,0,0,234.924,132.985Z" transform="translate(-48.793 -48.068)"/><path class="b" d="M592.924,174.985l7.54-6.031c-5.857-.646-8.265,2.548-9.249,5.077-4.576-1.9-9.558.59-9.558.59l15.086,5.477A11.411,11.411,0,0,0,592.924,174.985Z" transform="translate(-113.974 -55.881)"/><path class="b" d="M592.924,174.985l7.54-6.031c-5.857-.646-8.265,2.548-9.249,5.077-4.576-1.9-9.558.59-9.558.59l15.086,5.477A11.411,11.411,0,0,0,592.924,174.985Z" transform="translate(-433.864 -55.881)"/><path class="b" d="M163.21,463.638a11.4,11.4,0,0,0-5.708,1.532,12.271,12.271,0,0,0-20.5,9.116h37.635A11.459,11.459,0,0,0,163.21,463.638Z" transform="translate(-33.022 -110.421)"/><path class="b" d="M400.209,463.638a11.4,11.4,0,0,0-5.708,1.532,12.271,12.271,0,0,0-20.5,9.116h37.635A11.46,11.46,0,0,0,400.209,463.638Z" transform="translate(-76.178 -110.421)"/><path class="b" d="M555.21,463.638a11.4,11.4,0,0,0-5.708,1.532,12.271,12.271,0,0,0-20.5,9.116h37.635A11.459,11.459,0,0,0,555.21,463.638Z" transform="translate(-104.402 -110.421)"/><path class="b" d="M555.21,463.638a11.4,11.4,0,0,0-5.708,1.532,12.271,12.271,0,0,0-20.5,9.116h37.635A11.459,11.459,0,0,0,555.21,463.638Z" transform="translate(-424.283 -110.421)"/><path class="b" d="M561.582,464.036a14.175,14.175,0,0,0-7.1,1.9A15.254,15.254,0,0,0,529,477.272h46.785A14.244,14.244,0,0,0,561.582,464.036Z" transform="translate(-6.465 -113.449)"/><path class="b" d="M561.582,464.036a14.175,14.175,0,0,0-7.1,1.9A15.254,15.254,0,0,0,529,477.272h46.785A14.244,14.244,0,0,0,561.582,464.036Z" transform="translate(-326.342 -113.449)"/><path class="b" d="M561.582,464.036a14.175,14.175,0,0,0-7.1,1.9A15.254,15.254,0,0,0,529,477.272h46.785A14.244,14.244,0,0,0,561.582,464.036Z" transform="translate(115.618 -113.449)"/><path class="b" d="M561.582,464.036a14.175,14.175,0,0,0-7.1,1.9A15.254,15.254,0,0,0,529,477.272h46.785A14.244,14.244,0,0,0,561.582,464.036Z" transform="translate(-204.259 -113.449)"/><path class="b" d="M759.209,463.638a11.4,11.4,0,0,0-5.708,1.532,12.271,12.271,0,0,0-20.5,9.116h37.635A11.459,11.459,0,0,0,759.209,463.638Z" transform="translate(-141.548 -110.421)"/><path class="b" d="M759.209,463.638a11.4,11.4,0,0,0-5.708,1.532,12.271,12.271,0,0,0-20.5,9.116h37.635A11.459,11.459,0,0,0,759.209,463.638Z" transform="translate(-461.43 -110.421)"/><path class="b" d="M857.209,463.638a11.4,11.4,0,0,0-5.708,1.532,12.271,12.271,0,0,0-20.5,9.116h37.635A11.459,11.459,0,0,0,857.209,463.638Z" transform="translate(-159.587 -110.421)"/><path class="b" d="M857.209,463.638a11.4,11.4,0,0,0-5.708,1.532,12.271,12.271,0,0,0-20.5,9.116h37.635A11.459,11.459,0,0,0,857.209,463.638Z" transform="translate(-479.274 -110.421)"/></g></g></svg>