<?xml version="1.0" encoding="utf-8"?>
<!-- Generator: Adobe Illustrator 25.2.1, SVG Export Plug-In . SVG Version: 6.00 Build 0)  -->
<svg version="1.1" id="save-money" xmlns="http://www.w3.org/2000/svg" xmlns:xlink="http://www.w3.org/1999/xlink" x="0px" y="0px"
	 viewBox="0 0 46 46" style="enable-background:new 0 0 46 46;" xml:space="preserve">
<style type="text/css">
	.st0{fill:#23BC3D;}
</style>
<path id="Path_6836" class="st0" d="M23.5,25.1c-0.1,0-0.2,0-0.3,0c-0.9-0.1-1.5-0.8-1.5-1.7c0-0.4-0.3-0.8-0.7-0.8
	s-0.8,0.3-0.8,0.7c0,0,0,0,0,0.1c0,1.5,1,2.7,2.4,3.1v0.8c0,0.4,0.4,0.7,0.8,0.7c0.4,0,0.7-0.3,0.7-0.7v-0.7
	c1.7-0.4,2.9-2.1,2.5-3.8c-0.3-1.5-1.6-2.6-3.2-2.6c-0.9,0-1.7-0.8-1.7-1.7s0.8-1.7,1.7-1.7c0.9,0,1.7,0.8,1.7,1.7l0,0
	c0,0.4,0.3,0.8,0.7,0.8s0.8-0.3,0.8-0.7c0,0,0,0,0-0.1c0-1.5-1.1-2.8-2.6-3.2v-0.7c0-0.4-0.4-0.7-0.8-0.7c-0.4,0-0.7,0.3-0.7,0.7
	v0.7c-1.7,0.5-2.7,2.2-2.3,4c0.4,1.4,1.7,2.4,3.1,2.4c0.9,0,1.7,0.8,1.7,1.7C25.2,24.3,24.5,25.1,23.5,25.1L23.5,25.1z"/>
<path id="Path_6837" class="st0" d="M12.5,21c0,6,4.9,10.9,10.9,10.9S34.4,27,34.4,21c0-6-4.9-10.9-10.9-10.9S12.5,14.9,12.5,21
	L12.5,21z M23.5,11.6c5.2,0,9.4,4.2,9.4,9.4s-4.2,9.4-9.4,9.4S14,26.2,14,21l0,0C14,15.8,18.3,11.6,23.5,11.6z"/>
<path id="Path_6838" class="st0" d="M38.1,33.8l-5.9,2.8c-0.8-1.5-2.4-2.5-4.1-2.5l-5.5-0.1c-0.9,0-1.7-0.2-2.5-0.6L19.6,33
	c-2.8-1.5-6.2-1.5-9.1,0l0-1.3c0-0.4-0.3-0.8-0.7-0.8l-6-0.2c-0.4,0-0.8,0.3-0.8,0.7c0,0,0,0,0,0L2.7,44.6c0,0.4,0.3,0.8,0.7,0.8
	l6,0.2h0c0.4,0,0.7-0.3,0.8-0.7l0-0.6l1.6-0.8c0.6-0.3,1.3-0.4,2-0.2l9.3,2.6l0,0c0.7,0.1,1.4,0.2,2,0.2c1.5,0,2.9-0.3,4.2-0.9
	c0,0,0.1,0,0.1-0.1l13.5-8.7c0.3-0.2,0.4-0.7,0.2-1C42.2,33.5,40,32.9,38.1,33.8z M4.3,43.9l0.3-11.6l4.5,0.1L8.7,44.1L4.3,43.9z
	 M28.7,43.7c-1.6,0.7-3.5,0.9-5.2,0.6l-9.3-2.6c-1-0.3-2.2-0.2-3.1,0.3l-0.8,0.4l0.2-7.7c2.5-1.7,5.7-1.8,8.4-0.4l0.6,0.3
	c1,0.5,2,0.8,3.1,0.8l5.5,0.1c1.5,0,2.8,1.1,3.1,2.6L23.1,38c-0.4,0-0.8,0.3-0.8,0.8c0,0.4,0.3,0.7,0.7,0.8l9,0.2h0
	c0.4,0,0.7-0.3,0.8-0.7c0-0.3,0-0.7-0.1-1l6.1-2.9l0,0c0.9-0.4,1.9-0.3,2.6,0.4L28.7,43.7z"/>
<path id="Path_6839" class="st0" d="M24.2,7.9V0.8c0-0.4-0.3-0.8-0.7-0.8s-0.8,0.3-0.8,0.7c0,0,0,0,0,0.1v7.2c0,0.4,0.3,0.8,0.7,0.8
	C23.9,8.7,24.2,8.4,24.2,7.9C24.2,8,24.2,7.9,24.2,7.9z"/>
<path id="Path_6840" class="st0" d="M29.9,7.9V4.5c0-0.4-0.3-0.8-0.7-0.8c-0.4,0-0.8,0.3-0.8,0.7c0,0,0,0,0,0.1v3.4
	c0,0.4,0.3,0.8,0.7,0.8C29.5,8.7,29.9,8.4,29.9,7.9C29.9,8,29.9,7.9,29.9,7.9z"/>
<path id="Path_6841" class="st0" d="M18.6,7.9V4.5c0-0.4-0.3-0.8-0.7-0.8s-0.8,0.3-0.8,0.7c0,0,0,0,0,0.1v3.4c0,0.4,0.3,0.8,0.7,0.8
	S18.6,8.4,18.6,7.9C18.6,8,18.6,7.9,18.6,7.9z"/>
</svg>
