<svg xmlns="http://www.w3.org/2000/svg" width="40.527" height="46" viewBox="0 0 40.527 46"><defs><style>.a{fill:#23bc3d;}</style></defs><path class="a" d="M189.323,158.24a.719.719,0,0,0-.259-.009,1.715,1.715,0,0,1-1.517-1.7.755.755,0,1,0-1.509,0,3.228,3.228,0,0,0,2.373,3.108v.755a.755.755,0,0,0,1.509,0v-.709a3.222,3.222,0,0,0-.66-6.376,1.713,1.713,0,1,1,1.713-1.713.755.755,0,1,0,1.509,0,3.228,3.228,0,0,0-2.562-3.154v-.687a.755.755,0,0,0-1.509,0v.733a3.222,3.222,0,0,0,.849,6.33,1.712,1.712,0,0,1,.063,3.423Zm0,0" transform="translate(-168.526 -133.136)"/><path class="a" d="M104.2,117.433a10.941,10.941,0,1,0,10.941-10.941A10.941,10.941,0,0,0,104.2,117.433ZM115.136,108a9.432,9.432,0,1,1-9.432,9.432A9.432,9.432,0,0,1,115.136,108Zm0,0" transform="translate(-94.402 -96.448)"/><path class="a" d="M35.756,329.362l-5.911,2.793a4.814,4.814,0,0,0-4.1-2.533l-5.456-.15a5.763,5.763,0,0,1-2.48-.64l-.555-.288a9.793,9.793,0,0,0-9.071.01l.035-1.258a.755.755,0,0,0-.734-.775L1.5,326.356a.754.754,0,0,0-.775.733L.36,340.22a.755.755,0,0,0,.734.775l5.983.165H7.1a.755.755,0,0,0,.755-.734l.017-.628,1.554-.832a2.666,2.666,0,0,1,1.99-.218l9.282,2.605.049.012a9.936,9.936,0,0,0,2.04.21,10.068,10.068,0,0,0,4.206-.918.7.7,0,0,0,.094-.052L40.542,331.9a.755.755,0,0,0,.247-1.005,3.812,3.812,0,0,0-5.033-1.533ZM1.889,339.507l.32-11.622,4.475.123-.32,11.622Zm24.421-.2a8.555,8.555,0,0,1-5.232.584l-9.257-2.6a4.172,4.172,0,0,0-3.11.34l-.794.426.213-7.727a8.294,8.294,0,0,1,8.426-.449l.555.288a7.287,7.287,0,0,0,3.132.809l5.457.15a3.309,3.309,0,0,1,3.145,2.637l-8.128-.224a.755.755,0,0,0-.042,1.509l8.97.247h.021a.755.755,0,0,0,.754-.734,4.789,4.789,0,0,0-.073-.979l6.062-2.865.018-.008a2.305,2.305,0,0,1,2.607.365Zm0,0" transform="translate(-0.36 -295.575)"/><path class="a" d="M213.712,7.923V.755a.755.755,0,1,0-1.509,0V7.923a.755.755,0,1,0,1.509,0Zm0,0" transform="translate(-192.223)"/><path class="a" d="M273.712,44.15v-3.4a.755.755,0,1,0-1.509,0v3.4a.755.755,0,1,0,1.509,0Zm0,0" transform="translate(-246.564 -36.227)"/><path class="a" d="M153.712,44.15v-3.4a.755.755,0,1,0-1.509,0v3.4a.755.755,0,1,0,1.509,0Zm0,0" transform="translate(-137.882 -36.227)"/></svg>