<?xml version="1.0" encoding="utf-8"?>
<!-- Generator: Adobe Illustrator 25.2.1, SVG Export Plug-In . SVG Version: 6.00 Build 0)  -->
<svg version="1.1" id="Warstwa_1" xmlns="http://www.w3.org/2000/svg" xmlns:xlink="http://www.w3.org/1999/xlink" x="0px" y="0px"
	 viewBox="0 0 47.6040001 47.5999985" style="enable-background:new 0 0 47.6040001 47.5999985;" xml:space="preserve">
<style type="text/css">
	.st0{fill:#253F50;}
	.st1{fill:none;}
	.st2{fill:#FFFFFF;}
	.st3{fill:none;stroke:#253F50;stroke-width:1.5;}
</style>
<g transform="translate(-415.061 -613.185)">
	<path class="st0" d="M426.2453613,632.2991943c-0.085083-0.0186768-0.1728516-0.0217285-0.2590027-0.0090332
		c-0.8634033-0.1003418-1.5152283-0.8307495-1.5169983-1.6999512c0.0151367-0.416748-0.3103638-0.7667847-0.7270813-0.7819824
		c-0.416687-0.0151367-0.7667847,0.3103638-0.7819214,0.7271118c-0.0006714,0.0182495-0.0006714,0.0365601,0,0.0548706
		c0.0021057,1.4517212,0.9730835,2.7234497,2.3729858,3.1079712v0.7550049
		c0.0151672,0.416687,0.3652344,0.7422485,0.7819519,0.7270508c0.3954163-0.0143433,0.712677-0.331604,0.7270508-0.7270508
		v-0.7089844c1.7419128-0.3636475,2.8592224-2.0705566,2.4956055-3.812439
		c-0.3119202-1.4940796-1.629303-2.5643311-3.1556091-2.5635986c-0.9460449,0-1.7129822-0.7669067-1.7129822-1.7129517
		c0-0.946106,0.7669067-1.7130127,1.7129822-1.7130127s1.7130127,0.7669067,1.7130127,1.7130127l0,0
		c-0.0151672,0.416687,0.3103638,0.7667847,0.7270508,0.7819214c0.4167175,0.0151367,0.7667847-0.3103638,0.7819519-0.7270508
		c0.0006714-0.0183105,0.0006714-0.0366211,0-0.0548706c-0.0021667-1.5244141-1.0704041-2.8395386-2.5620117-3.1540527v-0.6869507
		c-0.0151367-0.416748-0.3652344-0.7422485-0.7819214-0.7271118c-0.3954468,0.0144043-0.7127075,0.331665-0.7270813,0.7271118
		v0.7329712c-1.7164917,0.4691772-2.7276611,2.2409668-2.2585144,3.9574585
		c0.382843,1.4007568,1.6553955,2.3723145,3.1075134,2.3725586c0.9455261-0.0026855,1.7141724,0.7616577,1.7168274,1.7071533
		c0.002594,0.9247437-0.7296143,1.6843872-1.6538086,1.7158203V632.2991943z"/>
	<g>
		<path class="st1" d="M434.3373108,632.9022217l-0.1489258-0.0860596c-0.9573975-0.5523071-2.1812134-0.223877-2.7335205,0.7335205
			c-0.43396,0.7522583-0.317627,1.6643677,0.2137451,2.2905884
			C432.7533875,635.0620728,433.6642761,634.0614624,434.3373108,632.9022217z"/>
		<path class="st1" d="M432.990448,636.7386475c3.3288574,1.883728,5.8911133,3.1934204,7.9979248,6.1735229
			c3.0689697,4.2439575,6.3380127,5.6259766,9.7080078,7.3109741l5.2550049-9.6279907l-5.1390381-7.9910278
			c-2.0188599-3.1523438-5.5065308-5.0568237-9.25-5.0509644h-3.4499512v5.2269897l4.7949829,2.7630005
			c0.4785156,0.276123,0.6426392,0.8879395,0.3665161,1.3665161c-0.2761841,0.4785156-0.8880005,0.6426392-1.3665161,0.3664551
			l-6.260376-3.6171875C434.9585266,634.8447876,434.0576477,635.8892822,432.990448,636.7386475z"/>
		<path class="st1" d="M429.7328796,632.5618896c1.0927734-1.9036255,3.5153198-2.5637207,5.4235229-1.4863281
			c0.2947388-0.9134521,0.4579468-1.8859253,0.4579468-2.8973999c0-5.2091675-4.2228394-9.4320068-9.4320068-9.4320068
			c-5.2091064,0-9.4320068,4.2228394-9.4320068,9.4320068s4.2229004,9.4320068,9.4320068,9.4320068
			c1.1483765,0,2.2438965-0.2155151,3.2617188-0.5913086l0.2982788-0.4656982
			C429.0265808,635.3199463,429.0229797,633.7985229,429.7328796,632.5618896z"/>
		<path class="st1" d="M430.721344,638.5461426l-0.3509521,0.6000366c-0.4161987,0.7179565-0.1715088,1.6373291,0.5464478,2.0534668
			c0.7180176,0.4161377,1.6373901,0.1715088,2.0535278-0.5465088c0.4829712-0.8319702,0.4539795-0.7769775,0.6970215-1.2069702
			C431.794342,638.3661499,432.4663391,638.5461426,430.721344,638.5461426z"/>
		<path class="st1" d="M435.1963806,640.8021851v0.0039673c-0.0341797,0.052002-0.0650635,0.1060791-0.0924683,0.1619263
			c-0.3653564,0.7435303-0.0588379,1.642395,0.6846924,2.0077515c0.7434692,0.3653564,1.642395,0.0588379,2.0077515-0.6846924
			c-0.727417-0.7025757-1.5326538-1.3198853-2.3999634-1.8399658L435.1963806,640.8021851z"/>
		<path class="st0" d="M429.4440613,637.0188599c-1.0178223,0.3757935-2.1133423,0.5913086-3.2617188,0.5913086
			c-5.2091064,0-9.4320068-4.2228394-9.4320068-9.4320068s4.2229004-9.4320068,9.4320068-9.4320068
			c5.2091675,0,9.4320068,4.2228394,9.4320068,9.4320068c0,1.0114746-0.163208,1.9839478-0.4579468,2.8973999
			c0.0084229,0.0047607,0.0175171,0.0067749,0.0259399,0.0115967l0.9300537,0.5369873v-2.0709839v-2v-1.6719971
			c0-0.0079956,0-0.3190308,0-0.3280029h0.6854858c-1.1779175-4.7718506-5.4749146-8.3150024-10.6105347-8.3150024
			c-6.0425415,0-10.940979,4.8984375-10.940979,10.940979s4.8984375,10.940979,10.940979,10.940979
			c0.7417603,0,1.4656982-0.0756226,2.1660156-0.2163086c0.0354614-0.1170654,0.0593872-0.2354736,0.1080322-0.350647
			L429.4440613,637.0188599z"/>
		<path class="st0" d="M431.4548645,633.5496826c0.5523071-0.9573975,1.776123-1.2858276,2.7335205-0.7335205l0.1489258,0.0860596
			c0.3334961-0.5742798,0.6116333-1.1837769,0.8190918-1.8266602c-1.9082031-1.0773926-4.3307495-0.4172974-5.4235229,1.4863281
			c-0.7098999,1.2366333-0.7062988,2.7580566,0.0094604,3.991272l-0.2982788,0.4656982
			c0.7980957-0.2946167,1.5447388-0.690979,2.2245483-1.1785889
			C431.1372375,635.2140503,431.0209045,634.3019409,431.4548645,633.5496826z"/>
		<path class="st0" d="M457.9513855,640.012146l-5.460022-8.4909668c-2.385498-3.7244263-6.5061646-5.9745483-10.9290161-5.9680176
			h-4.7644653c0.2080078,0.8427124,0.3305054,1.7190552,0.3305054,2.6259766c0,1.9990845-0.5449829,3.8671265-1.4813843,5.4797974
			l6.260376,3.6171875c0.4785156,0.2761841,1.090332,0.1120605,1.3665161-0.3664551
			c0.276123-0.4785767,0.1119995-1.0903931-0.3665161-1.3665161l-4.7949829-2.7630005v-5.2269897h3.4499512
			c3.7434692-0.0058594,7.2311401,1.8986206,9.25,5.0509644l5.1390381,7.9910278l-5.2550049,9.6279907
			c-3.3699951-1.6849976-6.6390381-3.0670166-9.7080078-7.3109741c-2.1068115-2.9801025-4.6690674-4.2897949-7.9979248-6.1735229
			c-1.329895,1.0584106-2.9075928,1.817749-4.637085,2.1651611c-0.5105591,1.6848145,0.305542,3.5154419,1.963623,4.21521
			c0.9678955,0.4085083,2.0684204,0.3586426,2.9953613-0.1358643c0.7709351,1.756958,2.8201294,2.5562744,4.5770874,1.7854004
			c0.4907837-0.215332,0.9251099-0.5413208,1.2689209-0.9523926c3.7739868,4.9860229,6.2630005,6.0109863,11.5050049,8.632019
			c0.4816284,0.2406006,1.0673218,0.0567017,1.3250122-0.4160156
			C458.3883972,640.2961426,458.4033508,640.7141724,457.9513855,640.012146z M432.9703674,640.6531372
			c-0.4161377,0.7180176-1.3355103,0.9626465-2.0535278,0.5465088c-0.7179565-0.4161377-0.9626465-1.3355103-0.5464478-2.0534668
			l0.3509521-0.6000366c1.7449951,0,1.072998-0.1799927,2.9460449,0.9000244
			C433.4243469,639.8761597,433.4533386,639.821167,432.9703674,640.6531372z M435.7886047,642.9758301
			c-0.7435303-0.3653564-1.0500488-1.2642212-0.6846924-2.0077515c0.0274048-0.0558472,0.0582886-0.1099243,0.0924683-0.1619263
			v-0.0039673l0.2000122-0.3510132c0.8673096,0.5200806,1.6725464,1.1373901,2.3999634,1.8399658
			C437.4309998,643.034668,436.532074,643.3411865,435.7886047,642.9758301z"/>
		<path class="st0" d="M436.1123962,625.8811646v1.6719971v2v2.0709839l-0.9300537-0.5369873
			c-0.0084229-0.0048218-0.0175171-0.0068359-0.0259399-0.0115967c-0.2074585,0.6428833-0.4855957,1.2523804-0.8190918,1.8266602
			l1.3096924,0.7567139c0.9364014-1.6126709,1.4813843-3.4807129,1.4813843-5.4797974
			c0-0.9069214-0.1224976-1.7832642-0.3305054-2.6259766h-0.6854858
			C436.1123962,625.5621338,436.1123962,625.8731689,436.1123962,625.8811646z"/>
		<path class="st0" d="M432.188385,636.2831421c-0.2051392-0.1183472-0.3748779-0.2720947-0.5197754-0.4428711
			c-0.6798096,0.4876099-1.4264526,0.8839722-2.2245483,1.1785889l-0.982666,1.5343018
			c-0.048645,0.1151733-0.0725708,0.2335815-0.1080322,0.350647c1.7294922-0.3474121,3.3071899-1.1067505,4.637085-2.1651611
			C432.7246399,636.5882568,432.4642639,636.4421387,432.188385,636.2831421z"/>
	</g>
	<g transform="translate(457.469 633.59) rotate(30)">
		<path class="st2" d="M3.18278,3.4199708L7.1827817,3.41997c0.5522847-0.0000002,1.0000005,0.447715,1.0000005,1
			L8.182785,21.4199753c0,0.5522842-0.4477148,1.0000019-1,1.0000019h-4.000001c-0.552285,0-1.0000005-0.4477158-1.0000005-1
			L2.18278,4.4199715C2.1827798,3.8676863,2.6304951,3.4199708,3.18278,3.4199708z"/>
		<path class="st3" d="M3.1827803,4.169971L7.1827817,4.16997c0.1380711,0,0.25,0.1119289,0.25,0.25L7.432785,21.4199753
			c0,0.1380711-0.1119289,0.25-0.25,0.25l-4.0000014,0.0000019c-0.1380711,0-0.25-0.1119289-0.25-0.25L2.9327803,4.419971
			C2.9327803,4.2818999,3.044709,4.169971,3.1827803,4.169971z"/>
	</g>
</g>
</svg>
