<svg xmlns="http://www.w3.org/2000/svg" width="20.894" height="21.992" viewBox="0 0 20.894 21.992"><defs><style>.a{fill:#72809d;}</style></defs><path class="a" d="M16.8,21.992H14.615a2,2,0,0,1-1.969-1.858l-.011-.154V16.835a.7.7,0,0,0-.594-.683l-.1-.011H9.005a.7.7,0,0,0-.681.594l-.011.1V19.97a1.164,1.164,0,0,1-.022.2l-.011.023-.013.076a1.993,1.993,0,0,1-1.857,1.716l-.144.01H4.3A4.3,4.3,0,0,1,0,17.923V8.786a3.273,3.273,0,0,1,1.1-2.41L7.95.867A4,4,0,0,1,12.745.735l.177.133,6.7,5.356a3.311,3.311,0,0,1,1.266,2.341l.011.222V17.7A4.306,4.306,0,0,1,16.8,21.992ZM8.841,14.612h3.1a2.239,2.239,0,0,1,2.221,2.058v3.31a.479.479,0,0,0,.385.472h2.045a2.756,2.756,0,0,0,2.759-2.573l.013-.175V8.8a1.782,1.782,0,0,0-.55-1.242l-.143-.122L11.965,2.066a2.45,2.45,0,0,0-1.53-.532,2.482,2.482,0,0,0-1.373.41L8.9,2.066,2.209,7.455A1.708,1.708,0,0,0,1.54,8.62L1.527,8.8V17.7a2.761,2.761,0,0,0,2.6,2.748H6.268a.471.471,0,0,0,.483-.394l.023-.2.012-.056V16.835A2.212,2.212,0,0,1,8.841,14.612Z" transform="translate(0 0)"/></svg>