<?xml version="1.0" encoding="utf-8"?>
<!-- Generator: Adobe Illustrator 26.0.1, SVG Export Plug-In . SVG Version: 6.00 Build 0)  -->
<svg version="1.1" id="Layer_1" xmlns="http://www.w3.org/2000/svg" xmlns:xlink="http://www.w3.org/1999/xlink" x="0px" y="0px"
	 viewBox="0 0 20 20" enable-background="new 0 0 20 20" xml:space="preserve">
<g>
	<path fill="#1DBF98" d="M10,0C4.4769,0.00047,0.00047,4.47684,0,10c0.00047,5.5231,4.4769,9.99953,10,10
		c5.52316-0.00047,9.99953-4.4769,10-10C19.99953,4.47684,15.52316,0.00047,10,0z M16.06096,16.06091
		C14.50753,17.61312,12.36921,18.57108,10,18.57143c-2.36915-0.00035-4.50753-0.95831-6.06091-2.51052
		C2.38688,14.50753,1.42898,12.36921,1.42857,10c0.00041-2.36921,0.95831-4.50753,2.51052-6.06091
		C5.49247,2.38682,7.63079,1.42892,10,1.42857c2.36921,0.00035,4.50753,0.95825,6.06096,2.51052
		C17.61318,5.49247,18.57108,7.63079,18.57143,10C18.57108,12.36921,17.61318,14.50753,16.06096,16.06091z"/>
	<path fill="#1DBF98" d="M13.54562,6.29941L8.88288,11.8693L6.45612,8.9699C6.16071,8.61694,5.63517,8.57032,5.28222,8.86573
		c-0.3529,0.29541-0.39958,0.82095-0.10417,1.17391l3.06571,3.66286c0.15863,0.1895,0.39185,0.29843,0.63901,0.29843
		c0.24716,0.00006,0.48038-0.10887,0.63901-0.29837l5.3018-6.33336c0.29541-0.3529,0.24885-0.8785-0.10405-1.17391
		S13.84103,5.94651,13.54562,6.29941z"/>
</g>
</svg>
