<svg xmlns="http://www.w3.org/2000/svg" width="21" height="21" viewBox="0 0 21 21"><defs><style>.a{fill:#72809d;}</style></defs><g transform="translate(-0.373 0.19)"><path class="a" d="M5.923,21a5.752,5.752,0,0,1-4.3-1.725A6.326,6.326,0,0,1,0,14.812V6.188A6.319,6.319,0,0,1,1.629,1.727,5.749,5.749,0,0,1,5.923,0h9.153a5.752,5.752,0,0,1,4.3,1.725A6.326,6.326,0,0,1,21,6.188v8.624a6.326,6.326,0,0,1-1.626,4.463A5.752,5.752,0,0,1,15.077,21ZM1.465,6.188v8.624c0,2.869,1.75,4.723,4.459,4.723h9.153c2.708,0,4.459-1.854,4.459-4.723V6.188c0-2.869-1.75-4.723-4.459-4.723H5.923C3.215,1.465,1.465,3.319,1.465,6.188Zm8.309,7.981-.007-.1V11.223H6.918a.732.732,0,0,1-.1-1.458l.1-.007H9.768V6.913a.732.732,0,0,1,1.458-.1l.007.1V9.758h2.849a.732.732,0,0,1,.1,1.458l-.1.007H11.232v2.846a.732.732,0,0,1-1.458.1Z" transform="translate(0.373 -0.19)"/></g></svg>