<?xml version="1.0" encoding="utf-8"?>
<!-- Generator: Adobe Illustrator 26.0.1, SVG Export Plug-In . SVG Version: 6.00 Build 0)  -->
<svg version="1.1" id="Layer_1" xmlns="http://www.w3.org/2000/svg" xmlns:xlink="http://www.w3.org/1999/xlink" x="0px" y="0px"
	 viewBox="0 0 20 20" enable-background="new 0 0 20 20" xml:space="preserve">
<g id="profile-active" transform="translate(-0.001 0)">
	<path id="Path_6875" fill="#1DBF98" d="M12.8775,9.84587c2.48667-1.58838,3.21488-4.89187,1.6265-7.37854
		s-4.89187-3.21488-7.37854-1.6265s-3.21488,4.89187-1.6265,7.37854c0.41764,0.65383,0.97267,1.20886,1.6265,1.6265
		c-3.12024,1.19489-5.18217,4.18824-5.18655,7.52944C1.94048,18.82423,3.11467,19.99843,4.5636,20h10.87576
		c1.44877-0.00157,2.62269-1.17592,2.62374-2.62469C18.05886,14.03434,15.99737,11.04106,12.8775,9.84587 M6.03826,5.35048
		c0-2.18882,1.77439-3.96322,3.96322-3.96322s3.96322,1.77439,3.96322,3.96322s-1.77439,3.96322-3.96322,3.96322c0,0,0,0,0,0
		C7.81374,9.31107,6.04088,7.53821,6.03826,5.35048 M15.43935,18.62054H4.5636c-0.68713-0.00105-1.24375-0.5581-1.24428-1.24523
		c-0.00057-3.69045,2.99068-6.68261,6.68113-6.68318c3.69045-0.00057,6.68261,2.99068,6.68318,6.68113
		c0,0.00068,0,0.00137,0,0.00205c-0.00105,0.68676-0.55752,1.24323-1.24428,1.24428"/>
</g>
</svg>
