<?xml version="1.0" encoding="utf-8"?>
<!-- Generator: Adobe Illustrator 26.0.1, SVG Export Plug-In . SVG Version: 6.00 Build 0)  -->
<svg version="1.1" id="Layer_1" xmlns="http://www.w3.org/2000/svg" xmlns:xlink="http://www.w3.org/1999/xlink" x="0px" y="0px"
	 viewBox="0 0 20 20" enable-background="new 0 0 20 20" xml:space="preserve">
<g>
	<path fill="#1DBF98" d="M2.5,1.75V2.5h4c0.55199,0.001,0.99899,0.448,1,1v3c-0.00101,0.55199-0.44801,0.999-1,1h-4
		c-0.552-0.001-0.999-0.44801-1.00001-1L1.5,3.5c0.001-0.55199,0.448-0.999,1-1V1.75V1C1.119,1.00049,0.00048,2.119,0,3.5v3
		C0.00048,7.881,1.11899,8.99951,2.5,9l4,0c1.381-0.00049,2.4995-1.119,2.49999-2.5L9,3.5C8.9995,2.119,7.881,1.00049,6.5,1h-4V1.75
		z"/>
	<path fill="#1DBF98" d="M2.5,11.75v0.75h4c0.55199,0.001,0.99899,0.448,1,1v3c-0.00101,0.55199-0.44801,0.999-1,1h-4
		c-0.552-0.001-0.999-0.44801-1.00001-1L1.5,13.5c0.001-0.552,0.448-0.999,1-1V11.75V11c-1.381,0.00049-2.49952,1.119-2.5,2.5v3
		c0.00048,1.381,1.119,2.49951,2.5,2.5l4,0c1.381-0.00049,2.4995-1.119,2.49999-2.5L9,13.5c-0.0005-1.381-1.119-2.49951-2.5-2.5h-4
		V11.75z"/>
	<path fill="#1DBF98" d="M13.5,1.75V2.5h4c0.55199,0.001,0.99899,0.448,1,1v3c-0.00101,0.55199-0.44801,0.999-1,1h-4
		c-0.552-0.001-0.999-0.44801-1.00001-1L12.5,3.5c0.001-0.55199,0.448-0.999,1-1V1.75V1c-1.381,0.00049-2.49952,1.119-2.5,2.5v3
		c0.00048,1.381,1.11899,2.49951,2.5,2.5l4,0c1.381-0.00049,2.4995-1.119,2.49999-2.5L20,3.5c-0.0005-1.381-1.119-2.49951-2.5-2.5
		h-4V1.75z"/>
	<path fill="#1DBF98" d="M13.5,11.75v0.75h4c0.55199,0.001,0.99899,0.448,1,1v3c-0.00101,0.55199-0.44801,0.999-1,1h-4
		c-0.552-0.001-0.999-0.44801-1.00001-1l0.00001-3c0.001-0.552,0.448-0.999,1-1V11.75V11c-1.381,0.00049-2.49952,1.119-2.5,2.5v3
		c0.00048,1.381,1.119,2.49951,2.5,2.5l4,0c1.381-0.00049,2.4995-1.119,2.49999-2.5L20,13.5c-0.0005-1.381-1.119-2.49951-2.5-2.5h-4
		V11.75z"/>
</g>
</svg>
