<svg xmlns="http://www.w3.org/2000/svg" width="100.323" height="36.352" viewBox="0 0 100.323 36.352">
  <g id="Group_9733" data-name="Group 9733" transform="translate(-0.931 -11.711)">
    <path id="Path_6865" data-name="Path 6865" d="M3.024-15.448H7.091v-6.727h5.551v-3.069H7.091v-4.041H14.1v-3.53H3.024Zm12.943,0H26.659v-3.53H20.008V-32.816H15.967Zm22.816-8.083A4.157,4.157,0,0,0,41.7-27.854a4.663,4.663,0,0,0-4.962-4.962H28.27v17.368h4.041V-22.1h2.532c1.3,0,1.688.512,2.072,1.739l.9,3.044c.307,1.458,1,1.867,2.174,1.867h2.942v-1.33c-.46,0-.691-.281-.844-.767l-.946-3.044c-.537-1.867-1.33-2.558-2.353-2.865ZM32.312-29.44h3.223a1.962,1.962,0,0,1,2.1,2.149,1.943,1.943,0,0,1-2.072,2.2H32.312Zm19.363-3.632c-4.911,0-7.75,3.939-7.75,9.029,0,4.886,2.839,8.85,7.75,8.85A7.819,7.819,0,0,0,57.584-17.7l-1-2.2a5.774,5.774,0,0,1-4.707,2.686c-3.5,0-5.474-3.223-5.474-6.83,0-3.939,1.918-7.009,5.474-7.009a5.715,5.715,0,0,1,4.707,2.686l1-2.2A7.741,7.741,0,0,0,51.675-33.072ZM70.22-15.448v-6.676c0-4.911-2-6.113-4.451-6.113a4.252,4.252,0,0,0-3.914,2.456v-7.034h-2.3v17.368h2.3V-22c0-3.479,1.791-4.323,3.146-4.323,1.739,0,2.942.844,2.942,4.323v6.548Zm2.967-8.62a6.318,6.318,0,0,1,4.476-2.3,1.924,1.924,0,0,1,2.2,2.072c0,.742-.256,1-1.432,1.33l-2.379.614c-2.328.588-3.862,1.56-3.862,3.709a3.254,3.254,0,0,0,3.479,3.453,5.457,5.457,0,0,0,4.221-2.328c.077,1.637.639,2.328,1.944,2.328a5.693,5.693,0,0,0,1.586-.256l.1-2.021a1.513,1.513,0,0,1-.844.358c-.486,0-.588-.46-.588-1.074v-5.5c0-2.89-1.049-4.553-4.093-4.553a7.951,7.951,0,0,0-5.218,2Zm1.33,5.244c0-1.177.614-1.739,2.123-2.2l1.893-.563a3.1,3.1,0,0,0,1.3-.665v3.044a4.537,4.537,0,0,1-3.453,2.251A1.746,1.746,0,0,1,74.517-18.825Zm10.769,3.376h2.277V-27.982H85.286Zm0-14.733h2.277v-2.353H85.286Zm15.833,14.733v-6.676c0-4.911-2-6.113-4.451-6.113a4.252,4.252,0,0,0-3.914,2.456v-2.2h-2.3v12.534h2.3V-22c0-3.479,1.791-4.323,3.146-4.323,1.739,0,2.942.844,2.942,4.323v6.548Z" transform="translate(-0.825 45.283)" fill="#253f50" stroke="rgba(0,0,0,0)" stroke-width="1"/>
    <path id="Path_6866" data-name="Path 6866" d="M2.241-8.089A1.974,1.974,0,0,0,4.081-6.963c1.161,0,2.321-.868,2.321-2.966,0-1.981-1.149-2.954-2.321-2.954a1.9,1.9,0,0,0-1.841,1.125v-1.008H1.584v7.843h.657Zm1.712.539c-1.09,0-1.712-.938-1.712-2.4,0-1.43.621-2.345,1.712-2.345,1.137,0,1.735.914,1.735,2.345C5.687-8.487,5.089-7.549,3.952-7.549Zm5.756,0c-1.137,0-1.735-.961-1.735-2.368,0-1.454.6-2.38,1.735-2.38,1.1,0,1.712.926,1.712,2.38C11.42-8.511,10.811-7.549,9.709-7.549Zm0,.586c1.559,0,2.427-1.219,2.427-2.954s-.868-2.966-2.427-2.966-2.45,1.219-2.45,2.966S8.138-6.963,9.709-6.963Zm4.5-.117h.727l1.688-4.865,1.7,4.865h.739l1.477-5.686h-.7L18.7-7.924l-1.735-4.842h-.645L14.6-7.924,13.46-12.766h-.727Zm9.461-.469c-1.208,0-1.817-.75-1.817-2.192h3.8a2.882,2.882,0,0,0,.082-.7,2.183,2.183,0,0,0-2.157-2.439c-1.348,0-2.439.961-2.439,3.1,0,1.852.985,2.825,2.5,2.825a2.838,2.838,0,0,0,1.993-.8l-.223-.68A2.174,2.174,0,0,1,23.671-7.549ZM23.554-12.3c1.02,0,1.548.856,1.489,1.958h-3.2A1.8,1.8,0,0,1,23.554-12.3Zm3.33,5.217h.668V-9.894c0-1.125.106-2.286,1.465-2.286a2.329,2.329,0,0,1,.469.059l.035-.762c-1.325,0-1.735.516-1.97,1.184v-1.067h-.668Zm5.463-.469c-1.208,0-1.817-.75-1.817-2.192h3.8a2.882,2.882,0,0,0,.082-.7,2.183,2.183,0,0,0-2.157-2.439c-1.348,0-2.439.961-2.439,3.1,0,1.852.985,2.825,2.5,2.825a2.838,2.838,0,0,0,1.993-.8l-.223-.68A2.174,2.174,0,0,1,32.347-7.549ZM32.23-12.3c1.02,0,1.548.856,1.489,1.958h-3.2A1.8,1.8,0,0,1,32.23-12.3Zm7.175.528a1.953,1.953,0,0,0-1.841-1.114c-1.172,0-2.321.856-2.321,2.954,0,1.981,1.149,2.966,2.321,2.966A1.918,1.918,0,0,0,39.4-8.1v1.02h.657v-7.96H39.4ZM37.693-12.3c1.09,0,1.712.926,1.712,2.392,0,1.43-.621,2.356-1.712,2.356-1.137,0-1.735-.926-1.735-2.356C35.958-11.371,36.556-12.3,37.693-12.3Zm6.964-2.743H44v7.96h.657V-8.1A1.9,1.9,0,0,0,46.5-6.963c1.172,0,2.321-.985,2.321-2.966,0-2.1-1.161-2.954-2.321-2.954a1.965,1.965,0,0,0-1.841,1.114ZM46.369-12.3c1.137,0,1.735.926,1.735,2.392,0,1.43-.6,2.356-1.735,2.356-1.09,0-1.712-.926-1.712-2.356C44.657-11.371,45.278-12.3,46.369-12.3Zm5.241,5.053L51.175-6.06c-.2.528-.481.668-.785.668a1.358,1.358,0,0,1-.844-.41v.727a1.466,1.466,0,0,0,.868.27,1.541,1.541,0,0,0,1.372-1.161l2.532-6.8h-.7L51.9-7.913l-1.993-4.854h-.7Zm9.1-7.327a3.092,3.092,0,0,1,2.509,1.3l.293-.7a3.99,3.99,0,0,0-2.825-1.184c-2.1,0-3.564,1.665-3.564,4.15,0,2.661,1.512,4.045,3.658,4.045a4.2,4.2,0,0,0,2.861-1.079V-11.09h-3.1v.586h2.45v2.157a3.339,3.339,0,0,1-2.2.8c-1.782,0-2.966-1.172-2.966-3.458C57.823-13.188,59.065-14.572,60.707-14.572Zm4.221,3.412a2.684,2.684,0,0,1,2-1.137,1.03,1.03,0,0,1,1.161,1.125c0,.363-.105.492-.7.668l-1.125.293c-1,.258-1.688.715-1.688,1.665a1.491,1.491,0,0,0,1.571,1.583A2.52,2.52,0,0,0,68.093-8.1c0,.809.246,1.137.774,1.137a2.028,2.028,0,0,0,.481-.07l.047-.692a.648.648,0,0,1-.375.176c-.234,0-.27-.246-.27-.539v-2.779c0-1.278-.446-2.016-1.735-2.016a3.081,3.081,0,0,0-2.228.985Zm.352,2.626c0-.6.317-.9,1.1-1.137l1.02-.3a1.416,1.416,0,0,0,.692-.352V-8.78a2.412,2.412,0,0,1-1.841,1.231A.926.926,0,0,1,65.279-8.534ZM70.332-7.08h.657v-5.686h-.657Zm0-6.788h.657v-.914h-.657Zm2.11,2.708a2.684,2.684,0,0,1,2-1.137,1.03,1.03,0,0,1,1.161,1.125c0,.363-.106.492-.7.668l-1.125.293c-1,.258-1.688.715-1.688,1.665a1.491,1.491,0,0,0,1.571,1.583A2.52,2.52,0,0,0,75.607-8.1c0,.809.246,1.137.774,1.137a2.028,2.028,0,0,0,.481-.07l.047-.692a.648.648,0,0,1-.375.176c-.234,0-.27-.246-.27-.539v-2.779c0-1.278-.445-2.016-1.735-2.016A3.081,3.081,0,0,0,72.3-11.9Zm.352,2.626c0-.6.317-.9,1.1-1.137l1.02-.3a1.416,1.416,0,0,0,.692-.352V-8.78a2.412,2.412,0,0,1-1.841,1.231A.926.926,0,0,1,72.794-8.534Zm7.128,1.571a2.455,2.455,0,0,0,1.981-.95l-.293-.621a2.185,2.185,0,0,1-1.688.985c-1,0-1.665-.868-1.665-2.356,0-1.407.6-2.392,1.665-2.392a1.965,1.965,0,0,1,1.653,1l.328-.633a2.483,2.483,0,0,0-1.981-.95c-1.442,0-2.392,1.1-2.392,2.966S78.468-6.963,79.922-6.963Zm7.55-.117v-2.954c0-2.31-.926-2.849-2.016-2.849a1.982,1.982,0,0,0-1.817,1.149v-3.306H82.97v7.96h.668v-2.954c0-1.852.973-2.263,1.653-2.263.891,0,1.524.41,1.524,2.263V-7.08Zm1.383-4.08a2.684,2.684,0,0,1,2-1.137,1.03,1.03,0,0,1,1.161,1.125c0,.363-.106.492-.7.668l-1.125.293c-1,.258-1.688.715-1.688,1.665a1.491,1.491,0,0,0,1.571,1.583A2.521,2.521,0,0,0,92.021-8.1c0,.809.246,1.137.774,1.137a2.028,2.028,0,0,0,.481-.07l.047-.692a.648.648,0,0,1-.375.176c-.234,0-.27-.246-.27-.539v-2.779c0-1.278-.445-2.016-1.735-2.016a3.081,3.081,0,0,0-2.228.985Zm.352,2.626c0-.6.317-.9,1.1-1.137l1.02-.3a1.416,1.416,0,0,0,.692-.352V-8.78A2.412,2.412,0,0,1,90.18-7.549.926.926,0,0,1,89.207-8.534ZM94.26-7.08h.657v-5.686H94.26Zm0-6.788h.657v-.914H94.26Zm6.647,6.788v-2.954c0-2.31-.926-2.849-2.016-2.849a1.982,1.982,0,0,0-1.817,1.149v-1.032h-.668V-7.08h.668v-2.954c0-1.852.973-2.263,1.653-2.263.891,0,1.524.41,1.524,2.263V-7.08Z" transform="translate(-0.153 52.369)" fill="#72809d" stroke="rgba(0,0,0,0)" stroke-width="1"/>
  </g>
</svg>
