<svg id="logo" xmlns="http://www.w3.org/2000/svg" xmlns:xlink="http://www.w3.org/1999/xlink" width="160" height="59.535" viewBox="0 0 160 59.535">
  <defs>
    <clipPath id="clip-path">
      <rect id="Rectangle_5310" data-name="Rectangle 5310" width="160" height="59.535" fill="none"/>
    </clipPath>
  </defs>
  <path id="Path_6892" data-name="Path 6892" d="M37.59,77.942v17.5l16.028,9.571V87.564Z" transform="translate(-27.454 -56.924)" fill="#1dbf98"/>
  <path id="Path_6893" data-name="Path 6893" d="M113.054,95.441v-17.5L97.026,87.564v17.448Z" transform="translate(-70.862 -56.924)" fill="#0ae084"/>
  <path id="Path_6894" data-name="Path 6894" d="M37.59,52.022l16.028,9.622,16.028-9.622L53.618,42.451Z" transform="translate(-27.454 -31.004)" fill="#31ffa1"/>
  <path id="Path_6895" data-name="Path 6895" d="M223.927,78.553h11.723v3.082h-8.064v4.633h7.574V89.3h-7.574v7.543h-3.658Z" transform="translate(-163.542 -57.37)" fill="#1b3256"/>
  <path id="Path_6896" data-name="Path 6896" d="M272.138,78.553h3.729V93.787h8.169l-.408,3.058H272.138Z" transform="translate(-198.753 -57.37)" fill="#1b3256"/>
  <g id="Group_9789" data-name="Group 9789">
    <g id="Group_9788" data-name="Group 9788" clip-path="url(#clip-path)">
      <path id="Path_6897" data-name="Path 6897" d="M323.81,89.288v7.557h-3.661V78.553H327.6c3.452,0,5.92,1.713,5.92,4.947a4.177,4.177,0,0,1-2.845,4.278c1.814.7,2.467,2.136,2.467,4.406v.475a31.6,31.6,0,0,0,.243,4.186h-3.594a14.9,14.9,0,0,1-.341-4.247v-.482c0-2.094-.762-2.828-3.152-2.828Zm0-2.961h2.783c1.772,0,3.232-.475,3.232-2.5,0-1.692-1.224-2.316-2.718-2.316h-3.3Z" transform="translate(-233.818 -57.37)" fill="#1b3256"/>
      <path id="Path_6898" data-name="Path 6898" d="M391.983,103.415c-.406,2.775-2.152,5.067-6.033,5.067-4.229,0-6.215-2.621-6.215-7.135,0-4.376,2.431-7.193,6.436-7.193,4.518,0,5.729,3.245,5.809,5.16h-3.611c-.136-1.242-.707-2.388-2.271-2.388-1.914,0-2.678,1.748-2.678,4.283,0,3.231.972,4.524,2.607,4.524,1.565,0,2.063-1.02,2.368-2.318Z" transform="translate(-277.336 -68.764)" fill="#1b3256"/>
      <path id="Path_6899" data-name="Path 6899" d="M432.758,74.391v7.262a4.085,4.085,0,0,1,3.836-1.933c2.474,0,4.356,1.365,4.356,5.01v9.075h-3.581V85.28c0-1.493-.477-2.569-2.17-2.569-1.751,0-2.44,1.182-2.44,3.4v7.695H429.13V74.391Z" transform="translate(-313.411 -54.331)" fill="#1b3256"/>
      <path id="Path_6900" data-name="Path 6900" d="M488.918,104.659a33.578,33.578,0,0,0,.19,3.58H485.93a11.685,11.685,0,0,1-.21-1.671c-.574,1.122-1.872,1.911-3.869,1.911-3.418,0-4.628-2.131-4.628-4.219,0-2.488,1.723-4.538,6.514-4.538h1.624v-1c0-1.13-.35-2.006-1.972-2.006a1.825,1.825,0,0,0-2.122,1.836h-3.511c.146-2.182,1.454-4.394,5.689-4.394,3.265,0,5.473,1.124,5.473,4.545Zm-3.437-2.617H483.8c-2.478,0-2.941,1.008-2.941,1.932a1.7,1.7,0,0,0,1.943,1.752c2.168,0,2.678-1.441,2.678-3.394Z" transform="translate(-348.535 -68.764)" fill="#1b3256"/>
      <path id="Path_6901" data-name="Path 6901" d="M528.321,74.391h3.629v3.338h-3.629Zm0,5.6h3.629V93.805h-3.629Z" transform="translate(-385.854 -54.331)" fill="#1b3256"/>
      <path id="Path_6902" data-name="Path 6902" d="M549.362,98.73c0-2.85-.027-3.7-.053-4.309h3.534a12.7,12.7,0,0,1,.124,1.785,4.18,4.18,0,0,1,3.85-2.052c2.9,0,4.366,1.85,4.366,5.029v9.057H557.55V99.877c0-1.561-.384-2.732-2.106-2.732-1.644,0-2.453.963-2.453,3.381v7.713h-3.628Z" transform="translate(-401.182 -68.764)" fill="#1b3256"/>
      <path id="Path_6903" data-name="Path 6903" d="M26.165,59.535a.975.975,0,0,1-.5-.138L.476,44.356A.975.975,0,0,1,0,43.519v-27.5a.975.975,0,0,1,.475-.837L25.665.138a.975.975,0,0,1,1,0L51.854,15.18a.975.975,0,0,1,.475.837v27.5a.975.975,0,0,1-.475.837L26.665,59.4a.975.975,0,0,1-.5.138M1.951,42.966,26.165,57.425,50.379,42.966V16.57L26.165,2.111,1.951,16.57Z" transform="translate(-0.001 0)" fill="#1b3256"/>
      <path id="Path_6904" data-name="Path 6904" d="M51.594,77.814a.744.744,0,0,1-.383-.106L35.183,68.138a.747.747,0,0,1-.364-.642V50a.747.747,0,0,1,.364-.642l16.028-9.571a.745.745,0,0,1,.766,0L68,49.355a.747.747,0,0,1,.364.642V67.5a.747.747,0,0,1-.364.642L51.977,77.708a.745.745,0,0,1-.383.106M36.313,67.072,51.594,76.2l15.28-9.124V50.421L51.594,41.3l-15.28,9.124Z" transform="translate(-25.43 -28.979)" fill="#1b3256"/>
      <rect id="Rectangle_5308" data-name="Rectangle 5308" width="1.494" height="16.514" transform="translate(25.417 31.013)" fill="#1b3256"/>
      <path id="Path_6905" data-name="Path 6905" d="M103.062,92.712l-8.443,4.946a.747.747,0,0,0-.364.642v.424h1.494L103.828,94v-.932Z" transform="translate(-68.838 -67.711)" fill="#1b3256"/>
      <rect id="Rectangle_5309" data-name="Rectangle 5309" width="1.707" height="10.048" transform="translate(25.31 48.087)" fill="#1b3256"/>
      <path id="Path_6906" data-name="Path 6906" d="M71.554,128.314,63.329,123.4l-.235-.933.925-.222,8.226,4.912Z" transform="translate(-46.079 -89.282)" fill="#1b3256"/>
    </g>
  </g>
</svg>
