<svg xmlns="http://www.w3.org/2000/svg" width="71.951" height="71.951" viewBox="0 0 71.951 71.951"><defs><style>.a{fill:#fe2121;}.b{fill:#fff;}</style></defs><path class="a" d="M35.976,0A35.976,35.976,0,1,0,71.951,35.975,35.978,35.978,0,0,0,35.976,0Z" transform="translate(0)"/><g transform="translate(21.449 20.648)"><g transform="translate(0 0.85)"><g transform="translate(0 0)"><path class="b" d="M14.478,27.393H3.619a1.207,1.207,0,0,1-1.206-1.206V4.47A1.207,1.207,0,0,1,3.619,3.263H14.478a1.207,1.207,0,0,0,0-2.413H3.619A3.624,3.624,0,0,0,0,4.47V26.187a3.624,3.624,0,0,0,3.619,3.619H14.478a1.206,1.206,0,1,0,0-2.413Z" transform="translate(0 -0.85)"/></g></g><g transform="translate(9.652 6.883)"><path class="b" d="M189.141,114.751l-7.336-7.239a1.206,1.206,0,1,0-1.694,1.718l5.242,5.173H171.306a1.206,1.206,0,0,0,0,2.413h14.047l-5.242,5.173a1.206,1.206,0,1,0,1.694,1.718l7.336-7.239a1.206,1.206,0,0,0,0-1.718Z" transform="translate(-170.1 -107.165)"/></g></g></svg>