<svg xmlns="http://www.w3.org/2000/svg" width="16" height="16" viewBox="0 0 16 16">
  <g id="area" transform="translate(-1 -1)">
    <path id="Path_6936" data-name="Path 6936" d="M13.949,1h-9.9A3.056,3.056,0,0,0,1,4.051v9.9A3.056,3.056,0,0,0,4.051,17h9.9A3.056,3.056,0,0,0,17,13.949v-9.9A3.056,3.056,0,0,0,13.949,1Zm1.984,12.949a1.989,1.989,0,0,1-1.984,1.984h-9.9a1.989,1.989,0,0,1-1.984-1.984v-9.9A1.989,1.989,0,0,1,4.051,2.067h9.9a1.989,1.989,0,0,1,1.984,1.984Z" fill="#71809c"/>
    <path id="Path_6937" data-name="Path 6937" d="M16.133,12.315a.533.533,0,0,0-.533.533v2L7.819,7.067h2A.533.533,0,1,0,9.819,6H6.368A.368.368,0,0,0,6,6.368V9.819a.533.533,0,1,0,1.067,0v-2L14.848,15.6h-2a.533.533,0,0,0,0,1.067H16.3a.368.368,0,0,0,.368-.368V12.848A.533.533,0,0,0,16.133,12.315Z" transform="translate(-2.333 -2.333)" fill="#71809c"/>
  </g>
</svg>
