<?xml version="1.0" encoding="utf-8"?>
<!-- Generator: Adobe Illustrator 25.2.1, SVG Export Plug-In . SVG Version: 6.00 Build 0)  -->
<svg version="1.1" id="Warstwa_1" xmlns="http://www.w3.org/2000/svg" xmlns:xlink="http://www.w3.org/1999/xlink" x="0px" y="0px"
	 viewBox="0 0 26 26" style="enable-background:new 0 0 26 26;" xml:space="preserve">
<style type="text/css">
	.st0{fill:#253F50;}
</style>
<g id="Calendar" transform="translate(141)">
	<path id="Calendar-2" class="st0" d="M-133,26c-1.8,0.1-3.5-0.6-4.8-1.8c-1.2-1.3-1.8-3.1-1.8-4.9V8.4c-0.1-1.8,0.5-3.5,1.8-4.8
		c1.1-1,2.6-1.7,4.1-1.7v-1c0-0.5,0.3-0.9,0.8-0.9c0.5,0,0.9,0.3,0.9,0.8l0,0.1v1h7.8v-1c0-0.5,0.4-0.9,0.9-0.9
		c0.5,0,0.8,0.3,0.9,0.8l0,0.1v1c1.6,0.1,3,0.7,4.2,1.8c1.2,1.3,1.8,3,1.7,4.7v11c0.1,1.8-0.5,3.5-1.8,4.8c-1.3,1.2-3,1.8-4.8,1.7
		H-133z M-137.7,19.4c0,3.1,1.7,4.8,4.7,4.8h10c3.1,0,4.7-1.7,4.7-4.7v-8.7h-19.5V19.4z M-118.3,9V8.4c0.1-1.3-0.3-2.5-1.2-3.5
		c-0.8-0.7-1.8-1.2-2.9-1.2v1.1c0,0.5-0.4,0.9-0.9,0.9c-0.5,0-0.8-0.3-0.9-0.8l0-0.1V3.7h-7.8v1.2c0,0.5-0.4,0.9-0.8,0.9
		c-0.5,0-0.9-0.3-0.9-0.8l0-0.1V3.8c-2.6,0.2-4.1,1.9-4.1,4.7V9L-118.3,9z M-123.6,19.3c0-0.4,0.3-0.8,0.8-0.9l0.1,0
		c0.5,0,0.9,0.4,0.9,0.9c0,0.4-0.3,0.8-0.8,0.9l-0.1,0C-123.2,20.2-123.6,19.8-123.6,19.3C-123.6,19.3-123.6,19.3-123.6,19.3z
		 M-128.9,19.3c0-0.4,0.3-0.8,0.8-0.9l0.1,0c0.5,0,0.9,0.4,0.9,0.9c0,0.4-0.3,0.8-0.8,0.9l-0.1,0C-128.5,20.2-128.9,19.8-128.9,19.3
		C-128.9,19.3-128.9,19.3-128.9,19.3z M-134.1,19.3c0-0.4,0.3-0.8,0.8-0.9l0.1,0c0.5,0,0.9,0.4,0.9,0.9c0,0.4-0.3,0.8-0.8,0.9
		l-0.1,0C-133.7,20.2-134.1,19.8-134.1,19.3z M-123.6,14.6c0-0.4,0.3-0.8,0.8-0.9l0.1,0c0.5,0,0.9,0.4,0.9,0.9
		c0,0.4-0.3,0.8-0.8,0.9l-0.1,0C-123.2,15.5-123.6,15.1-123.6,14.6C-123.6,14.6-123.6,14.6-123.6,14.6z M-128.9,14.6
		c0-0.4,0.3-0.8,0.8-0.9l0.1,0c0.5,0,0.9,0.4,0.9,0.9c0,0.4-0.3,0.8-0.8,0.9l-0.1,0C-128.5,15.5-128.9,15.1-128.9,14.6
		C-128.9,14.6-128.9,14.6-128.9,14.6z M-134.1,14.6c0-0.4,0.3-0.8,0.8-0.9l0.1,0c0.5,0,0.9,0.4,0.9,0.9c0,0.4-0.3,0.8-0.8,0.9
		l-0.1,0C-133.7,15.5-134.1,15.1-134.1,14.6z"/>
</g>
</svg>
