<svg xmlns="http://www.w3.org/2000/svg" width="23" height="26" viewBox="0 0 23 26"><defs><style>.a{fill:#253f50;}</style></defs><path class="a" d="M6.512,26a6.507,6.507,0,0,1-4.76-1.76A6.732,6.732,0,0,1,0,19.375V8.431A6.566,6.566,0,0,1,1.753,3.64a6.311,6.311,0,0,1,4.1-1.708V.907A.883.883,0,0,1,7.618.784l.008.123v1h7.759v-1A.884.884,0,0,1,17.146.784l.008.123V1.932a6.273,6.273,0,0,1,4.151,1.753A6.57,6.57,0,0,1,23,8.431V19.467a6.586,6.586,0,0,1-1.75,4.8A6.56,6.56,0,0,1,16.488,26ZM1.769,19.375c0,3.1,1.685,4.811,4.744,4.811h9.975c3.058,0,4.743-1.675,4.743-4.72v-8.7H1.769ZM21.23,8.954V8.429a4.743,4.743,0,0,0-1.178-3.463,4.43,4.43,0,0,0-2.9-1.216V4.887a.884.884,0,0,1-1.762.123l-.008-.123V3.723H7.626V4.887a.883.883,0,0,1-1.761.123l-.008-.123V3.75c-2.643.227-4.088,1.869-4.088,4.681v.523Zm-5.375,10.33a.9.9,0,0,1,.765-.9l.13-.008a.909.909,0,0,1,.121,1.805l-.121.008A.9.9,0,0,1,15.855,19.284Zm-5.235,0a.9.9,0,0,1,.765-.9l.131-.008a.909.909,0,0,1,.121,1.805l-.121.008A.9.9,0,0,1,10.62,19.284Zm-5.244,0a.9.9,0,0,1,.765-.9l.13-.008a.909.909,0,0,1,.121,1.805l-.131.008A.9.9,0,0,1,5.376,19.284Zm10.479-4.7a.9.9,0,0,1,.765-.9l.13-.008a.909.909,0,0,1,.121,1.805l-.121.008A.9.9,0,0,1,15.855,14.584Zm-5.235,0a.9.9,0,0,1,.765-.9l.131-.008a.909.909,0,0,1,.121,1.805l-.121.008A.9.9,0,0,1,10.62,14.584Zm-5.244,0a.9.9,0,0,1,.765-.9l.13-.008a.909.909,0,0,1,.121,1.805l-.131.008A.9.9,0,0,1,5.376,14.584Z"/></svg>