<?xml version="1.0" encoding="utf-8"?>
<!-- Generator: Adobe Illustrator 25.2.1, SVG Export Plug-In . SVG Version: 6.00 Build 0)  -->
<svg version="1.1" id="Warstwa_1" xmlns="http://www.w3.org/2000/svg" xmlns:xlink="http://www.w3.org/1999/xlink" x="0px" y="0px"
	 viewBox="0 0 28 28" style="enable-background:new 0 0 28 28;" xml:space="preserve">
<style type="text/css">
	.st0{fill-rule:evenodd;clip-rule:evenodd;fill:#253F50;}
</style>
<g transform="translate(0 0)">
	<g transform="translate(0 0)">
		<path class="st0" d="M12.9035006,7.2199855V6.0789857c-0.044836-0.6058569,0.4099598-1.1333475,1.0158157-1.1781836
			c0.6058578-0.044837,1.1333485,0.4099598,1.1781845,1.0158167c0.0039997,0.0540485,0.0039997,0.1083183,0,0.1623669v1.1380005
			c1.7578497,0.1151733,3.2482176,1.3347135,3.7089987,3.0350003c0.0789795,0.3484917-0.1395073,0.6950226-0.487999,0.7739992
			c-0.0469246,0.0106344-0.0948868,0.0160007-0.1430016,0.0160007h-0.5929985
			c-0.4800453-0.0001297-0.9168167-0.2775431-1.1210022-0.7119999c-0.5001554-0.8739071-1.4683638-1.3709469-2.4699984-1.2679996
			c-1.4939995,0-2.5,0.7329998-2.5,1.8330002c0,0.8800001,0.6689997,1.3929996,2.2910004,1.7780008l1.5209999,0.3479996
			c2.6849985,0.6140003,3.8210001,1.7229996,3.8210001,3.6929998c0,2.1830006-1.5240021,3.6599998-4.0240011,4.0079994v1.3220005
			c-0.044836,0.6058559-0.5723267,1.0606537-1.1781845,1.0158157c-0.5434875-0.0402203-0.9755955-0.4723263-1.0158157-1.0158157
			V20.743988c-2.2150002-0.2670002-3.71-1.4400005-4.0620003-3.2329998c-0.0574379-0.2954636,0.13552-0.5815468,0.4309835-0.6389866
			c0.0339441-0.0065975,0.0684385-0.0099506,0.1030169-0.0100136h0.8999996
			c0.4069939-0.0003471,0.7780342,0.2330132,0.9540005,0.6000004c0.5869408,0.9670296,1.6734219,1.515316,2.7999992,1.4130001
			c1.5949993,0,2.6999998-0.7880001,2.6999998-1.8880005c0-0.9529991-0.6779976-1.499999-2.3459997-1.8999987l-1.7140007-0.3999996
			c-2.4379997-0.559-3.592-1.7320004-3.592-3.6199999C9.0895004,9.0359859,10.6215,7.5739856,12.9035006,7.2199855z
			 M0.2895002,14.0079851C0.2963176,8.1022873,4.0954146,2.8688991,9.7084999,1.0329853
			c0.3451347-0.1137714,0.7171516,0.0737858,0.8309231,0.418921c0.0220251,0.0668139,0.0331926,0.1367283,0.0330772,0.2070789
			v0.3860003c0.0004253,0.588131-0.3554068,1.1179256-0.8999996,1.3400002
			C3.8057408,5.74651,0.9641862,12.416852,3.3257108,18.2836113c1.1629186,2.8890533,3.452395,5.1798229,6.3407903,6.3443737
			c0.5495157,0.2230606,0.9089937,0.756937,0.9090004,1.3500004v0.3220005
			c-0.0002928,0.3865986-0.3139305,0.6997623-0.7005301,0.6994686c-0.0745792-0.0000553-0.1486702-0.0120296-0.21947-0.0354691
			C4.0699983,25.1118183,0.296958,19.8925667,0.2895002,14.0079851z M27.7104988,14.0079851
			c-0.0065727,5.8678637-3.7578087,11.0767736-9.3209991,12.9429998c-0.3805161,0.12813-0.7928581-0.0764713-0.9209862-0.4569893
			c-0.025177-0.0747623-0.0380135-0.1531239-0.0380135-0.2320099v-0.2579994
			c0.0014076-0.6070118,0.3685226-1.1533375,0.9300003-1.3840008c5.8604736-2.3756104,8.6855164-9.0522757,6.309906-14.9127493
			c-1.1621552-2.8669562-3.4349365-5.1416659-6.3009071-6.3062506c-0.5686989-0.232645-0.9407272-0.7855558-0.9419975-1.4000001
			v-0.239c-0.0001945-0.4048247,0.3278198-0.7331586,0.7326431-0.7333541
			c0.0796852-0.0000381,0.1588402,0.0129161,0.2343559,0.0383539C23.9550171,2.9347022,27.7037888,8.1421785,27.7104988,14.0079851z
			"/>
	</g>
</g>
</svg>
