<?xml version="1.0" encoding="utf-8"?>
<!-- Generator: Adobe Illustrator 25.2.1, SVG Export Plug-In . SVG Version: 6.00 Build 0)  -->
<svg version="1.1" id="Warstwa_1" xmlns="http://www.w3.org/2000/svg" xmlns:xlink="http://www.w3.org/1999/xlink" x="0px" y="0px"
	 viewBox="0 0 15 15" style="enable-background:new 0 0 15 15;" xml:space="preserve">
<style type="text/css">
	.st0{fill:none;}
	.st1{fill:#71809C;}
</style>
<g id="Group_9164" transform="translate(0 0.5)">
	<g id="Rectangle_2658" transform="translate(0 0.339)">
		<path class="st0" d="M3.5,0.1h7.9c1.7,0,3,1.3,3,3V11c0,1.7-1.3,3-3,3H3.5c-1.7,0-3-1.3-3-3V3.1C0.5,1.5,1.9,0.1,3.5,0.1z"/>
		<path class="st1" d="M11.5,14H3.5c-1.7,0-3-1.3-3-3V3.1c0-1.7,1.3-3,3-3h7.9c1.7,0,3,1.3,3,3V11C14.5,12.7,13.1,14,11.5,14z
			 M3.5,1.1c-1.1,0-2,0.9-2,2V11c0,1.1,0.9,2,2,2h7.9c1.1,0,2-0.9,2-2V3.1c0-1.1-0.9-2-2-2H3.5z"/>
	</g>
	<rect x="0.9" y="4.5" class="st1" width="13" height="1"/>
	<path class="st1" d="M5,3.1c-0.3,0-0.5-0.2-0.5-0.5V0.1c0-0.3,0.2-0.5,0.5-0.5s0.5,0.2,0.5,0.5v2.4C5.5,2.8,5.3,3.1,5,3.1z"/>
	<path class="st1" d="M9.9,3.1c-0.3,0-0.5-0.2-0.5-0.5V0.1c0-0.3,0.2-0.5,0.5-0.5s0.5,0.2,0.5,0.5v2.4C10.4,2.8,10.2,3.1,9.9,3.1z"
		/>
</g>
</svg>
