<svg xmlns="http://www.w3.org/2000/svg" width="15.4" height="14" viewBox="0 0 15.4 14">
  <path id="hashtag-white" d="M14.7,3.667H12.573l.7-2.619A.7.7,0,0,0,11.923.685l-.8,2.981H6.153l.7-2.619A.7.7,0,1,0,5.5.685L4.7,3.667H2.1a.7.7,0,0,0,0,1.4H4.328L3.2,9.266H.7a.7.7,0,1,0,0,1.4H2.826l-.7,2.619a.7.7,0,1,0,1.351.363l.8-2.981H9.247l-.7,2.619a.7.7,0,1,0,1.352.363l.8-2.981h2.6a.7.7,0,1,0,0-1.4H11.071l1.126-4.2h2.5a.7.7,0,0,0,0-1.4Zm-5.078,5.6H4.65l1.126-4.2h4.971Zm0,0" transform="translate(0 -0.166)" fill="#fff"/>
</svg>
