<?xml version="1.0" encoding="utf-8"?>
<!-- Generator: Adobe Illustrator 25.2.1, SVG Export Plug-In . SVG Version: 6.00 Build 0)  -->
<svg version="1.1" id="Warstwa_1" xmlns="http://www.w3.org/2000/svg" xmlns:xlink="http://www.w3.org/1999/xlink" x="0px" y="0px"
	 viewBox="0 0 16 16" style="enable-background:new 0 0 16 16;" xml:space="preserve">
<style type="text/css">
	.st0{fill:#FE2121;}
</style>
<g>
	<path class="st0" d="M8.0000896,0.0001869c-4.4111681,0-7.9999065,3.5887384-7.9999065,7.9999065
		C0.0001831,12.4107504,3.5889215,16,8.0000896,16c4.4106569,0,7.9999065-3.5892496,7.9999065-7.9999065
		C15.9999962,3.5889254,12.4107466,0.0001869,8.0000896,0.0001869z M8.0000896,14.4297676
		c-3.5452909,0-6.4296737-2.883872-6.4296737-6.4296741c0-3.5452909,2.8843827-6.4296737,6.4296737-6.4296737
		c3.5458021,0,6.4296741,2.8843827,6.4296741,6.4296737C14.4297638,11.5458956,11.5458918,14.4297676,8.0000896,14.4297676z"/>
	<path class="st0" d="M10.1637602,5.0502844H5.8353972c-0.4334497,0-0.7851167,0.3516669-0.7851167,0.7851167v4.3283629
		c0,0.4334497,0.3516669,0.7851162,0.7851167,0.7851162h4.3283629c0.4334497,0,0.7851162-0.3516665,0.7851162-0.7851162V5.8354011
		C10.9488764,5.4019513,10.5972099,5.0502844,10.1637602,5.0502844z"/>
</g>
</svg>
