<?xml version="1.0" encoding="utf-8"?>
<!-- Generator: Adobe Illustrator 25.2.0, SVG Export Plug-In . SVG Version: 6.00 Build 0)  -->
<svg version="1.1" id="Warstwa_1" xmlns="http://www.w3.org/2000/svg" xmlns:xlink="http://www.w3.org/1999/xlink" x="0px" y="0px"
	 viewBox="0 0 15.5 15.5" style="enable-background:new 0 0 15.5 15.5;" xml:space="preserve">
<style type="text/css">
	.st0{fill:#FFC423;}
</style>
<g id="Icon_feather-pause-circle" transform="translate(-2.25 -2.25)">
	<path class="st0" d="M10,17.7502003c-4.2734375,0-7.75-3.4765625-7.75-7.75s3.4765625-7.75,7.75-7.75s7.75,3.4765623,7.75,7.75
		S14.2734375,17.7502003,10,17.7502003z M10,3.7502c-3.4462891,0-6.25,2.8037107-6.25,6.25s2.8037109,6.25,6.25,6.25
		s6.25-2.8037109,6.25-6.25S13.4462891,3.7502,10,3.7502z"/>
	<path class="st0" d="M8.6000977,12.8498096c-0.4140625,0-0.75-0.3359375-0.75-0.75V7.9001021c0-0.4140625,0.3359375-0.75,0.75-0.75
		s0.75,0.3359375,0.75,0.75v4.1997075C9.3500977,12.5138721,9.0141602,12.8498096,8.6000977,12.8498096z"/>
	<path class="st0" d="M11.4003906,12.8498096c-0.4140625,0-0.75-0.3359375-0.75-0.75V7.9001021
		c0-0.4140625,0.3359375-0.75,0.75-0.75s0.75,0.3359375,0.75,0.75v4.1997075
		C12.1503906,12.5138721,11.8144531,12.8498096,11.4003906,12.8498096z"/>
</g>
</svg>
