<?xml version="1.0" encoding="utf-8"?>
<!-- Generator: Adobe Illustrator 25.2.0, SVG Export Plug-In . SVG Version: 6.00 Build 0)  -->
<svg version="1.1" id="Warstwa_1" xmlns="http://www.w3.org/2000/svg" xmlns:xlink="http://www.w3.org/1999/xlink" x="0px" y="0px"
	 viewBox="0 0 21 21" style="enable-background:new 0 0 21 21;" xml:space="preserve">
<style type="text/css">
	.st0{fill:#C50505;}
</style>
<g id="Plus" transform="translate(-0.373 0.19)">
	<path id="Plus-2" class="st0" d="M6.296,20.8100166c-1.6116223,0.0534668-3.1716821-0.5720081-4.3000002-1.723999
		C0.8956968,17.8653202,0.3136218,16.2643452,0.373,14.6220169V5.9980168
		C0.3154632,4.3554964,0.8997356,2.7551136,2.0019999,1.5360168c1.1263356-1.1514742,2.6840744-1.7776171,4.2940001-1.726h9.1539993
		c1.6118364-0.0535772,3.1720629,0.5723276,4.2999983,1.725c1.1002426,1.2203344,1.6823292,2.8209801,1.6230011,4.4629998v8.625
		c0.0582981,1.6423988-0.5248547,3.2430191-1.6259995,4.4629993c-1.1273937,1.1515236-2.6863441,1.776989-4.2969999,1.7240009H6.296
		z M1.8380001,5.9980168v8.625c0,2.8689995,1.75,4.7229996,4.4580002,4.7229996h9.1540003
		c2.7079983,0,4.4589996-1.8540001,4.4589996-4.7229996v-8.625c0-2.8689997-1.75-4.7220001-4.4589987-4.7220001H6.296
		C3.5879998,1.2750169,1.8380001,3.1280169,1.8380001,5.9980168z M12.9630003,13.4180164l-0.0749998-0.066l-2.0150003-2.0159998
		l-2.0120001,2.0129995c-0.2913752,0.2810402-0.7554102,0.2726612-1.0364494-0.018714
		c-0.2476697-0.2567778-0.2744985-0.6545782-0.0635505-0.9422865l0.066-0.0749998l2.0099998-2.0129995L7.823,8.2860165
		C7.5372052,8.0000839,7.5373173,7.5366068,7.8232503,7.2508121C8.082222,6.9919658,8.4926176,6.9642873,8.7840004,7.1860166
		l0.0749998,0.0650001l2.0139999,2.0130005l2.0120001-2.0120001c0.2913742-0.2810407,0.7554092-0.2726636,1.0364494,0.0187111
		c0.2476711,0.2567782,0.2745008,0.6545801,0.0635509,0.9422894L13.920001,8.2890177l-2.0120001,2.0120001l2.0150003,2.0150003
		c0.2810411,0.2913742,0.2726631,0.7554092-0.0187111,1.0364494c-0.2567778,0.2476711-0.6545801,0.2745008-0.9422894,0.0635509
		L12.9630003,13.4180164z"/>
</g>
</svg>
