<svg xmlns="http://www.w3.org/2000/svg" width="21" height="21" viewBox="0 0 21 21">
  <g id="Plus" transform="translate(-0.373 0.19)">
    <path id="Plus-2" data-name="Plus" d="M5.923,21a5.752,5.752,0,0,1-4.3-1.724A6.326,6.326,0,0,1,0,14.812V6.188A6.323,6.323,0,0,1,1.629,1.726,5.749,5.749,0,0,1,5.923,0h9.154a5.749,5.749,0,0,1,4.3,1.725A6.324,6.324,0,0,1,21,6.188v8.625a6.326,6.326,0,0,1-1.626,4.463A5.749,5.749,0,0,1,15.077,21ZM1.465,6.188v8.625c0,2.869,1.75,4.723,4.458,4.723h9.154c2.708,0,4.459-1.854,4.459-4.723V6.188c0-2.869-1.75-4.722-4.459-4.722H5.923C3.215,1.465,1.465,3.318,1.465,6.188Zm11.124,7.42-.075-.066L10.5,11.527,8.488,13.539a.733.733,0,0,1-1.1-.961l.066-.075,2.012-2.012L7.449,8.476a.733.733,0,0,1,.961-1.1l.075.066L10.5,9.455l2.012-2.013a.733.733,0,0,1,1.1.961l-.065.076-2.013,2.012,2.014,2.014a.733.733,0,0,1-.961,1.1Z" transform="translate(0.373 -0.19)" fill="#fe2121"/>
  </g>
</svg>
