<svg xmlns="http://www.w3.org/2000/svg" width="14.947" height="14.172" viewBox="0 0 14.947 14.172"><defs><style>.a{fill:#72809d;fill-rule:evenodd;}</style></defs><g transform="translate(-4 -4.615)"><g transform="translate(4 4.615)"><g transform="translate(0)"><path class="a" d="M10.875,8.006V7.383a.6.6,0,1,1,1.2,0V8a2.247,2.247,0,0,1,2.022,1.654.353.353,0,0,1-.344.431h-.323a.675.675,0,0,1-.611-.388,1.388,1.388,0,0,0-1.346-.691c-.814,0-1.364.4-1.364,1,0,.48.365.759,1.249.969l.829.19c1.464.335,2.083.939,2.083,2.013a2.22,2.22,0,0,1-2.194,2.185v.72a.6.6,0,0,1-1.2,0v-.709a2.312,2.312,0,0,1-2.214-1.762.3.3,0,0,1,.291-.354h.491a.576.576,0,0,1,.52.329,1.614,1.614,0,0,0,1.529.77c.869,0,1.474-.43,1.474-1.029,0-.52-.37-.819-1.279-1.034l-.934-.22C9.425,11.772,8.8,11.132,8.8,10.1A2.186,2.186,0,0,1,10.875,8.006ZM4,11.705A7.45,7.45,0,0,1,9.134,4.633a.359.359,0,0,1,.471.341v.211a.788.788,0,0,1-.492.731,6.242,6.242,0,0,0,0,11.579.794.794,0,0,1,.5.736v.176a.381.381,0,0,1-.5.362A7.45,7.45,0,0,1,4,11.705Zm14.947,0a7.45,7.45,0,0,1-5.082,7.055.4.4,0,0,1-.523-.376v-.141a.815.815,0,0,1,.507-.754,6.241,6.241,0,0,0,.006-11.566.826.826,0,0,1-.513-.765V5.03a.4.4,0,0,1,.527-.379A7.45,7.45,0,0,1,18.947,11.705Z" transform="translate(-4 -4.615)"/></g></g></g></svg>