<?xml version="1.0" encoding="utf-8"?>
<!-- Generator: Adobe Illustrator 25.2.1, SVG Export Plug-In . SVG Version: 6.00 Build 0)  -->
<svg version="1.1" id="Warstwa_1" xmlns="http://www.w3.org/2000/svg" xmlns:xlink="http://www.w3.org/1999/xlink" x="0px" y="0px"
	 viewBox="0 0 14.9469995 14.9499998" style="enable-background:new 0 0 14.9469995 14.9499998;" xml:space="preserve">
<style type="text/css">
	.st0{fill-rule:evenodd;clip-rule:evenodd;fill:#72809D;}
</style>
<g transform="translate(-4 -4.615)">
	<g transform="translate(4 4.615)">
		<path class="st0" d="M6.875,3.7799852V3.1569855c-0.0001984-0.3313708,0.2682705-0.6001606,0.5996408-0.600359
			c0.3313713-0.0001979,0.6001606,0.2682705,0.600359,0.5996413c0,0.0002394,0,0.0004783,0,0.0007176v0.6170001
			c0.9581718,0.0626659,1.7706385,0.7272651,2.0220003,1.654c0.0430784,0.1901379-0.0761375,0.3791962-0.2662745,0.4222746
			C9.8052206,5.8560386,9.7791519,5.8589654,9.7530003,5.8589854h-0.323
			c-0.2616539,0.000021-0.4997482-0.1511755-0.6110001-0.3879995c-0.2726583-0.476119-0.8001947-0.7469425-1.3459997-0.691
			c-0.8140001,0-1.3640003,0.3999996-1.3640003,1c0,0.4799995,0.3649998,0.7589998,1.2489996,0.9689999l0.8290005,0.1899996
			c1.4639997,0.335,2.0830002,0.9390001,2.0830002,2.013c-0.018878,1.2023325-0.9916,2.1710644-2.1940002,2.1849995v0.7199993
			c-0.0001984,0.3313713-0.2689877,0.5998402-0.600359,0.5996418c-0.33109-0.0001984-0.5994425-0.2685509-0.5996408-0.5996418
			v-0.7089996c-1.0532064-0.0144329-1.9635286-0.7389088-2.2139997-1.7620001
			C4.6321621,9.2230082,4.7400913,9.0667,4.9030676,9.0368614C4.9195471,9.033844,4.9362497,9.0322132,4.953001,9.0319843h0.4910002
			c0.2222967,0.0001364,0.424674,0.1281786,0.5199995,0.3289995c0.3203478,0.5280867,0.9139843,0.8270407,1.5290003,0.7700005
			c0.8690004,0,1.474-0.4300003,1.474-1.0290003c0-0.5199995-0.3699999-0.8190002-1.2790003-1.0340004l-0.934-0.2200007
			C5.4250002,7.5459857,4.8000002,6.9059854,4.8000002,5.8739858C4.8461666,4.744451,5.7459335,3.8364456,6.875,3.7799852z
			 M0,7.4789853c0.0038309-3.2189121,2.0745769-6.0713301,5.1339998-7.0719995
			c0.1883745-0.0618558,0.3912258,0.0407081,0.4530821,0.2290826c0.0118608,0.0361214,0.017909,0.0738983,0.0179176,0.1119175v0.211
			c0.000288,0.3211598-0.1943588,0.6103611-0.4919996,0.7309999C1.9155474,2.978627,0.3681498,6.6153245,1.6567912,9.8127775
			c0.6343517,1.5739908,1.8822184,2.8218575,3.4562087,3.4562092c0.3013868,0.1201344,0.499361,0.4115524,0.5,0.7360001v0.1760006
			c0.0000334,0.2104206-0.1705189,0.3810272-0.3809395,0.3810596c-0.0404472,0.0000076-0.080637-0.0064278-0.1190605-0.0190601
			C2.0646715,13.535924,0.004293,10.6893539,0,7.4789853z M14.9469986,7.4789853
			c-0.0037117,3.1988292-2.0490589,6.0382466-5.0819998,7.0550008c-0.2102051,0.0679455-0.4356918-0.0473785-0.5036373-0.2575836
			c-0.0123711-0.0382748-0.018899-0.0781956-0.0193624-0.1184158v-0.1410007
			c0.0002279-0.3309631,0.2005806-0.6289234,0.507-0.7539997c3.1945343-1.2943878,4.7349091-4.9333792,3.4405212-8.1279144
			c-0.6333065-1.5629904-1.8721886-2.8031585-3.4345217-3.4380853C9.5444975,1.5698445,9.3417549,1.2675097,9.3419991,0.9319861
			V0.8039858c0.0001669-0.2209139,0.179389-0.3998642,0.4003029-0.3996968
			c0.0430717,0.0000324,0.0858545,0.0070214,0.1266975,0.0206966C12.9000111,1.4430025,14.9434357,4.2815833,14.9469986,7.4789853z"
			/>
	</g>
</g>
</svg>
