<svg xmlns="http://www.w3.org/2000/svg" width="72" height="72" viewBox="0 0 72 72"><defs><style>.a{fill:#fff;}.b{fill:#ff3e1d;}</style></defs><g transform="translate(-271.237 -447.335)"><circle class="a" cx="36" cy="36" r="36" transform="translate(271.237 447.335)"/><g transform="translate(271.237 447.237)"><circle class="a" cx="36" cy="36" r="36" transform="translate(0 0.099)"/><path class="b" d="M36,72A36,36,0,1,1,72,36,36.041,36.041,0,0,1,36,72Zm0-31.051,0,0,11.47,11.474a3.533,3.533,0,0,0,4.949,0,3.549,3.549,0,0,0,0-4.953L40.949,36,52.423,24.526a3.549,3.549,0,0,0,0-4.953,3.533,3.533,0,0,0-4.949,0L36,31.051,24.526,19.573a3.538,3.538,0,0,0-4.953,0,3.557,3.557,0,0,0,0,4.953L31.051,36,19.573,47.474a3.557,3.557,0,0,0,0,4.953,3.538,3.538,0,0,0,4.953,0L36,40.952Z" transform="translate(0 0.099)"/></g></g></svg>