<svg xmlns="http://www.w3.org/2000/svg" width="71.951" height="71.951" viewBox="0 0 71.951 71.951"><defs><style>.a{fill:#ffc423;}.b{fill:#fff;}</style></defs><path class="a" d="M35.976,0A35.976,35.976,0,1,0,71.951,35.975,35.978,35.978,0,0,0,35.976,0Z" transform="translate(0)"/><path class="b" d="M7.324-11.49v-1.656a9.766,9.766,0,0,1,1.035-4.736,13.491,13.491,0,0,1,3.623-3.908,20.038,20.038,0,0,0,3.972-3.778,5.67,5.67,0,0,0,.893-3.209A4.034,4.034,0,0,0,15.4-32.116a6.513,6.513,0,0,0-4.167-1.165,14.322,14.322,0,0,0-4.555.7A32.334,32.334,0,0,0,2.588-30.9L.414-35.454a22.782,22.782,0,0,1,11.257-2.924,12.167,12.167,0,0,1,8.048,2.484A8.451,8.451,0,0,1,22.7-29.036a9.77,9.77,0,0,1-.569,3.455A9.915,9.915,0,0,1,20.406-22.7a27.788,27.788,0,0,1-3.972,3.571,15.236,15.236,0,0,0-3.222,3.131,6.013,6.013,0,0,0-.815,3.338v1.165ZM6.263-3.235q0-3.908,3.8-3.908A3.768,3.768,0,0,1,12.914-6.12,3.993,3.993,0,0,1,13.9-3.235a4.112,4.112,0,0,1-1,2.911A3.674,3.674,0,0,1,10.067.75,3.681,3.681,0,0,1,7.246-.3,4.126,4.126,0,0,1,6.263-3.235Z" transform="translate(23.502 56.098)"/></svg>