<?xml version="1.0" encoding="utf-8"?>
<!-- Generator: Adobe Illustrator 25.2.1, SVG Export Plug-In . SVG Version: 6.00 Build 0)  -->
<svg version="1.1" id="Group_9573" xmlns="http://www.w3.org/2000/svg" xmlns:xlink="http://www.w3.org/1999/xlink" x="0px" y="0px"
	 viewBox="0 0 71.9509964 71.9509964" style="enable-background:new 0 0 71.9509964 71.9509964;" xml:space="preserve">
<style type="text/css">
	.st0{fill:#23BC3D;}
	.st1{fill:#FFFFFF;}
</style>
<path id="Path" class="st0" d="M35.9760017,0C16.1070042-0.0005562-0.0004509,16.1059971-0.0010071,35.9749947
	S16.10499,71.9514465,35.9739876,71.9520035s35.9764519-16.105999,35.9770088-35.9749947c0-0.0006714,0-0.001339,0-0.0020103
	C71.9493408,16.1072426,55.8437576,0.0016593,35.9760017,0z"/>
<path id="Shape" class="st1" d="M30.8470001,47.4309998L20.453001,37.0370026c-0.6236782-0.6246414-0.6236782-1.6363602,0-2.2610016
	l2.2619991-2.2610016c0.6246395-0.6236782,1.6363621-0.6236782,2.2610016,0l7,7l15-15
	c0.6246376-0.6236782,1.6363602-0.6236782,2.2609978,0l2.2610016,2.2660007c0.6236801,0.6246395,0.6236801,1.6363621,0,2.2609997
	L33.1090012,47.4309998c-0.6246414,0.6236801-1.6363602,0.6236801-2.2610016,0H30.8470001z"/>
</svg>
